<svg class="svg-color" width="51" height="50" viewBox="0 0 51 50" fill="none" xmlns="http://www.w3.org/2000/svg">
<path class="svg-color" d="M21.7813 0.179449C13.1913 1.35945 6.20135 6.37944 2.43135 14.0894C-4.35865 28.0994 3.68134 45.1194 18.9913 49.0894C22.7913 50.0694 28.1413 50.0094 31.9813 48.8894C40.5113 46.4294 46.9014 40.0994 49.2714 31.7694C50.2214 28.4594 50.2913 22.1294 49.4313 18.8794C47.6313 12.0194 42.2113 5.49944 35.8213 2.47944C31.6813 0.479437 26.1113 -0.410551 21.7813 0.179449ZM32.0113 3.58944C41.0313 6.50944 47.7213 15.5894 47.6613 24.7794C47.5913 31.1094 45.5013 36.4194 41.3613 40.5594C36.9613 44.9594 32.2713 47.0494 26.2413 47.3194C19.0613 47.6794 12.6313 44.9894 7.94134 39.6394C6.04134 37.5094 3.58135 32.7794 2.92135 30.0294C2.30135 27.5394 2.40134 22.1594 3.05134 19.5294C4.72134 13.0394 9.74134 6.99944 15.6113 4.40944C20.5013 2.24944 26.8913 1.91944 32.0113 3.58944Z" fill="white"/>
<path class="svg-color" d="M18.4613 6.44943C17.3113 6.90943 16.7213 7.29943 16.7213 7.65943C16.7213 7.95943 17.1513 9.81943 17.6713 11.8294C18.1913 13.7994 18.5613 15.4694 18.5213 15.5394C18.4913 15.5694 17.2713 15.1094 15.8613 14.4594C14.4513 13.7994 13.1413 13.3394 12.9113 13.3794C12.6113 13.4494 12.6813 14.0394 13.1713 15.5394L13.7913 17.6094L16.6413 18.9894C18.2113 19.7394 19.5913 20.4994 19.7213 20.6594C20.0513 21.1494 21.3913 26.7594 21.2313 26.9594C21.1313 27.0294 20.0813 26.7294 18.8413 26.2694C17.6313 25.8094 16.5813 25.4794 16.5113 25.5494C16.4413 25.6194 16.6113 26.3694 16.9013 27.2194C17.3913 28.6594 17.5913 28.8294 19.9813 30.0394C22.8313 31.4794 22.5713 31.0194 24.1113 36.8294C24.6013 38.6994 25.0913 40.2094 25.2313 40.2094C25.3313 40.2094 25.9813 38.2394 26.6713 35.8494L27.9213 31.5194L30.1813 30.3994C31.3913 29.8094 32.6113 29.0594 32.8413 28.7594C33.4613 28.0094 34.4513 25.7794 34.1513 25.7794C34.0213 25.7794 32.9713 26.0794 31.8213 26.4394C30.6713 26.7994 29.6613 27.0294 29.5913 26.9594C29.3613 26.7594 31.1313 20.7594 31.4913 20.3694C31.6913 20.1694 32.9313 19.5794 34.2813 19.0594L36.7713 18.0794L37.7213 15.8194C38.2413 14.5694 38.6413 13.5194 38.5713 13.4594C38.5013 13.3894 37.1913 13.8494 35.6513 14.4394C34.0813 15.0594 32.7313 15.4894 32.6713 15.4194C32.6013 15.3194 33.0313 13.5494 33.6213 11.4194C34.9013 7.01943 34.9313 7.15943 31.9813 6.26943C29.0313 5.37943 29.1613 5.21944 28.6313 10.2094C28.3313 13.0294 26.9213 19.7894 26.4313 20.7994C26.2013 21.2894 25.7113 21.7194 25.2813 21.7794C24.6913 21.8794 24.4313 21.6494 24.0713 20.7294C23.5513 19.5194 22.4613 12.7294 22.0713 8.29943C21.8413 5.83943 21.8413 5.76943 20.9913 5.80943C20.5613 5.78943 19.3813 6.08943 18.4613 6.44943Z" fill="white"/>
<path class="svg-color" d="M7.54129 14.3494C5.24129 18.3494 4.36129 24.4494 5.38129 28.8794C6.53129 33.7694 10.1413 39.1494 13.8413 41.5394C14.9613 42.2294 15.9113 42.7494 16.0013 42.6894C16.0713 42.5894 15.7413 41.5694 15.2813 40.3894C14.3013 37.9294 14.1313 34.7194 14.9213 32.7494C15.4113 31.5394 15.3813 31.4094 13.2813 24.9394C10.2613 15.7594 9.15129 12.6394 8.82129 12.6394C8.66129 12.6494 8.10129 13.4294 7.54129 14.3494ZM9.97129 22.8794C10.6313 23.6294 11.1513 24.4194 11.1513 24.6194C11.1513 24.8194 10.8513 25.7694 10.5313 26.7794C9.87128 28.5494 9.87129 28.5794 10.6313 32.9094C11.0213 35.2694 11.2213 37.2394 11.0913 37.2394C10.9913 37.2394 10.5713 36.8094 10.1713 36.2894C7.9413 33.1394 6.86129 28.3194 7.51129 24.3794C8.07129 20.9094 8.23129 20.8494 9.97129 22.8794ZM13.0513 29.7694C12.9513 32.1994 12.7213 33.0194 12.2313 32.5294C11.8713 32.1994 11.9013 27.0494 12.2613 26.2694C12.5213 25.6494 12.5213 25.6494 12.8513 26.4294C13.0213 26.8794 13.1213 28.3894 13.0513 29.7694Z" fill="white"/>
<path class="svg-color" d="M41.2314 12.8794C41.0014 13.2394 35.9214 27.0194 34.9714 29.7994C34.4814 31.2094 34.4814 31.4394 34.9714 32.6894C35.6914 34.4294 35.4014 37.5394 34.3114 40.2694C33.8514 41.3894 33.5614 42.3694 33.6514 42.4694C34.0414 42.8994 37.0614 40.8594 39.0314 38.8594C45.1314 32.6594 46.7714 24.5294 43.6214 16.1594C42.8314 14.0894 41.5514 12.3194 41.2314 12.8794ZM42.4414 26.1894C42.4414 28.2194 42.2414 30.5194 42.0114 31.3394C41.5514 32.9094 39.1614 37.2394 38.7314 37.2394C38.6014 37.2394 38.8614 35.2994 39.2914 32.9394L40.0414 28.6794L39.4214 26.7794C38.7014 24.6794 38.8014 24.3194 40.4414 22.5494C41.3614 21.5994 41.5214 21.5294 41.9814 21.9894C42.3714 22.4194 42.4714 23.2694 42.4414 26.1894ZM37.9514 29.6394C37.8214 32.2594 37.2614 33.3794 36.8714 31.8694C36.6114 30.7894 36.8714 26.6894 37.2314 26.0994C37.7214 25.2694 38.1114 27.1394 37.9514 29.6394Z" fill="white"/>
</svg>
