<svg width="47" height="47" viewBox="0 0 47 47" fill="none" xmlns="http://www.w3.org/2000/svg">
<path d="M18.04 0.370442C17.06 0.630442 14.69 1.62043 12.82 2.53043C9.97 3.94043 8.95 4.66043 6.72 6.89043C2.19 11.3504 0 16.7604 0 23.4904C0 27.1004 0.589997 29.8204 1.97 32.8704C8.92 48.2504 29.03 51.5704 40.44 39.2304C44.54 34.8004 46.57 29.2904 46.57 22.6004C46.57 16.1404 44.57 11.5804 39.55 6.56043C36.37 3.41043 33.55 1.71044 29.84 0.660435C27.19 -0.0495647 20.3 -0.249558 18.04 0.370442ZM20 2.21044C19.54 2.57044 18.72 3.10043 18.13 3.36043C16.95 3.88043 15.41 5.72043 15.41 6.61043C15.41 7.07043 15.61 7.13043 16.33 6.97043C16.82 6.87043 19.22 6.67043 21.64 6.58043C25.71 6.38043 27.74 6.55044 30.1 7.27044C30.66 7.47044 30.82 7.37044 30.82 6.91044C30.82 5.73044 29.54 4.19044 27.47 2.84044L25.4 1.46044L26.88 1.69043C29.77 2.15043 32.39 3.20044 34.95 4.84044C38.82 7.37044 41.18 9.96044 43.12 13.7604L44.73 16.9404L44.86 22.1204C44.99 27.7604 44.7 28.4204 43.78 24.3204C42.53 18.7404 41.71 16.5104 40.86 16.3504C40.34 16.2504 40.27 16.3804 40.43 17.1704C40.56 17.6604 40.73 19.4004 40.86 21.0404C41.25 26.4504 39.81 31.9904 36.99 36.1904C35.61 38.2204 34.69 38.9104 33.32 38.9104C32.89 38.9104 31.52 39.2104 30.3 39.6004C28.36 40.1904 27.77 40.5804 25.81 42.5504C24.53 43.8004 23.61 44.9104 23.71 45.0404C23.84 45.1404 24.79 44.8404 25.81 44.3804C26.86 43.9204 28.66 43.3604 29.84 43.1704C33.55 42.5104 34.4 42.1904 35.48 41.0704C36.43 40.0904 38.04 39.2304 38.04 39.6904C38.04 40.0504 33.81 42.8405 31.97 43.6604C25.64 46.4804 17.01 45.8204 11.5 42.1204C9.56 40.8404 5.07 36.3504 5.4 36.0204C5.73 35.6904 7.79 37.3604 8.42 38.5104C9.5 40.3804 10.03 40.7404 13.86 41.9904C15.8 42.6104 18.03 43.5304 18.85 43.9904C21.28 45.4304 21.31 44.7804 19.01 42.3504C16.58 39.8204 13.79 37.8904 11.47 37.1004C9.47 36.4404 8.49 35.3004 6.85 31.8504C4.82 27.6204 4.55 24.1704 5.77 18.3004C6.07 16.9604 6.2 15.8104 6.1 15.6804C5.51 15.1204 4.26 17.7104 3.44 21.1904C3.21 22.1704 2.62 23.7204 2.16 24.6304L1.27 26.2704L1.43 22.6604C1.69 16.3304 3.63 11.9004 8.02 7.57044C10.87 4.72044 17.17 1.60043 20.16 1.53043C20.76 1.52043 20.76 1.59044 20 2.21044Z" fill="white"/>
<path d="M9.73997 6.44044C8.29997 7.36044 7.40997 11.1004 8.06997 13.5604C8.36997 14.6104 8.78997 14.5104 10.07 13.0004C10.69 12.2804 11.41 11.6904 11.64 11.6904C11.87 11.6904 12.69 11.1705 13.44 10.5405C14.19 9.92045 15.08 9.39044 15.41 9.39044C15.74 9.39044 16.69 9.91045 17.51 10.5405C19.05 11.7205 19.81 11.9504 20.17 11.3604C20.47 10.8704 20.99 10.9704 20.99 11.5204C20.99 11.7804 20.56 12.2104 20.04 12.5004C18.6 13.2204 17.65 14.6004 17.88 15.5504C18.01 16.1104 17.81 16.7304 17.26 17.5804C16.34 18.9604 15.98 20.2404 15.39 23.8804C15.03 26.2104 15.06 26.4405 15.65 27.3204C16.44 28.4405 17.72 31.7805 17.72 32.7305C17.72 33.3505 17.85 33.3904 19.56 33.1604C21.3 32.9604 21.36 32.9605 20.97 33.5905C20.35 34.6105 21.1 35.3004 22.84 35.3004C25.23 35.3004 25.86 34.8704 26.97 32.4504C28.05 30.0204 29.86 27.1004 30.25 27.1004C31.14 27.1004 30.02 31.8604 28.48 34.6104C27.14 37.0004 27.56 37.3304 30.32 35.9904C33.11 34.6104 35.37 31.6604 35.96 28.6104C36.16 27.4304 36.12 27.3305 35.57 27.5905C35.24 27.7205 34.62 27.9205 34.23 27.9805C33.54 28.1405 33.48 28.0104 33.48 27.0004C33.48 25.9904 33.64 25.7505 34.69 25.2305C36.17 24.5105 36.66 23.2004 36.23 21.1304C35.9 19.5604 35.41 19.2304 34.95 20.2804C34.75 20.7704 34.29 21.0704 33.7 21.1304C32.75 21.2604 32.52 21.5904 31.86 24.0504C31.66 24.7704 31.2 25.7205 30.88 26.1505C30.29 26.8705 30.26 26.8704 29.96 26.2504C29.76 25.9204 29.53 24.2504 29.4 22.5804C29.2 19.7304 28.68 17.9204 27.86 17.4304C27.66 17.3004 27.6 16.7104 27.73 15.9904C27.96 14.5504 27.17 13.3305 25.6 12.6804C24.42 12.1904 23.99 12.4204 24.75 13.1704C25.47 13.8904 25.41 14.2204 24.68 13.5604C24.35 13.2304 23.53 13.0004 22.84 13.0004C21.86 13.0004 21.63 12.9004 21.72 12.4104C21.82 11.9504 22.11 11.8904 23.36 11.9504C24.21 12.0204 25.1 11.9504 25.33 11.8204C25.56 11.6604 26.18 11.5904 26.67 11.6604C27.19 11.6904 27.85 11.5305 28.18 11.2305C28.48 10.9705 29.26 10.5104 29.92 10.2104C31.2 9.69045 32.48 9.91045 33.04 10.7704C33.17 11.0004 34.02 11.5605 34.88 11.9805C35.74 12.4005 36.75 13.1904 37.11 13.7204C37.47 14.2104 38 14.6404 38.23 14.6404C38.89 14.6404 39.48 12.1804 39.28 10.2804C39.18 9.00044 38.92 8.48044 37.94 7.56044C36.89 6.58044 36.56 6.44044 35.02 6.44044C33.9 6.44044 32.95 6.67045 32.23 7.10045C31.38 7.62045 30.59 7.76045 28.36 7.76045C25.64 7.76045 25.51 7.79044 24.59 8.78044C24.07 9.34044 23.64 9.93045 23.64 10.0905C23.64 10.7505 22.72 10.3204 22.52 9.57045C22.22 8.36045 20.75 7.77045 17.83 7.73045C15.73 7.70045 15.14 7.57045 14.55 7.01045C13.67 6.24045 10.69 5.88044 9.73997 6.44044ZM12.79 8.87045C12.79 9.53045 10.53 11.2004 10.36 10.6404C10.26 10.4104 10.16 9.98044 10.06 9.72044C9.98997 9.46044 10.22 9.06044 10.62 8.83044C11.57 8.28044 12.79 8.31045 12.79 8.87045ZM36.24 9.39044C36.34 9.55044 36.73 9.72044 37.09 9.72044C37.78 9.72044 37.94 10.2104 37.35 10.5704C37.15 10.6704 37.05 11.0604 37.15 11.3904C37.41 12.3104 37.02 12.1805 35.25 10.5405L33.61 9.10045L34.82 9.07045C35.49 9.06045 36.14 9.20044 36.24 9.39044ZM21.35 14.5405C21.68 14.4404 22.14 14.5705 22.33 14.8405C22.66 15.2705 22.79 15.2304 23.28 14.8104C23.77 14.3504 23.87 14.3504 24.26 14.8104C24.49 15.0704 24.82 15.2004 25.05 15.0704C25.25 14.9704 25.28 15.0004 25.15 15.1704C24.99 15.3304 24.46 15.4704 24 15.4704C23.15 15.4704 23.11 15.5704 23.02 17.2404C22.95 18.4904 23.05 19.1404 23.45 19.5704C23.94 20.1304 23.91 20.1604 22.83 20.1604C21.71 20.1604 21.22 19.7704 22.01 19.5004C22.5 19.3404 22.73 16.9104 22.34 15.8604C22.08 15.2404 21.78 14.9704 21.16 14.9704C20.5 14.9704 20.34 14.8104 20.37 14.2204C20.4 13.6304 20.44 13.6005 20.57 14.0905C20.66 14.5105 20.92 14.6405 21.35 14.5405ZM20.66 19.8204C20.66 19.9504 20.14 20.0204 19.51 19.9504C18.89 19.8804 18.36 19.7504 18.36 19.6904C18.36 19.6304 18.88 19.5604 19.51 19.5604C20.14 19.5604 20.66 19.6904 20.66 19.8204ZM27.22 20.5105C27.22 20.6705 26.92 20.7404 26.56 20.6404C26.2 20.5404 25.9 20.4105 25.9 20.3405C25.9 20.2705 26.2 20.2104 26.56 20.2104C26.92 20.2204 27.22 20.3505 27.22 20.5105ZM25.48 22.7404C25.71 23.0404 25.91 23.6304 25.91 24.0504C25.91 25.1004 26.7 25.0004 27.22 23.8904C27.48 23.3304 27.68 23.1704 27.81 23.4604C27.97 23.9504 27.29 28.5104 26.86 29.6904C26.56 30.4404 26.53 30.4404 26.07 29.8504C25.61 29.2304 25.41 29.3305 24.86 30.3705C24.79 30.4705 23.61 30.5004 22.2 30.4404C19.84 30.3404 19.67 30.2804 19.48 29.5204C19.25 28.6004 19.05 28.5405 18.53 29.2905C18.17 29.7805 18.07 29.6204 17.74 28.1104C17.54 27.1904 17.38 25.4905 17.38 24.3705C17.41 22.3705 17.41 22.3704 17.9 23.2204C18.56 24.4304 19.34 24.4304 19.34 23.2204C19.34 22.7004 19.44 22.2004 19.54 22.0704C19.64 21.9704 20.95 21.9404 22.39 22.0004C24.46 22.1504 25.19 22.3104 25.48 22.7404Z" fill="white"/>
<path d="M23.35 8.15043C22.89 8.61043 22.83 9.40043 23.28 9.40043C23.58 9.40043 24.26 8.38043 24.26 7.96043C24.27 7.62043 23.78 7.72043 23.35 8.15043Z" fill="white"/>
<path d="M13.12 11.7904C11.64 12.5104 11.64 12.5104 11.55 14.4104C11.45 16.5104 11.68 17.0004 13.22 17.8204C14.14 18.2804 14.2 18.2804 15.29 17.2304C16.57 16.0204 16.86 14.4404 15.78 14.7404C15.35 14.8404 15.09 14.7104 14.99 14.2504C14.76 13.4304 13.91 13.6604 14.07 14.5104C14.17 15.1304 14.17 15.1304 13.48 14.5104C13.09 14.1504 12.79 13.7604 12.79 13.6204C12.79 13.0604 14.3 13.0004 15.51 13.4904C16.82 14.0504 17.77 13.7904 18.17 12.8004C18.5 11.9104 18.4 11.7804 17.15 11.5904C16.46 11.4904 15.61 11.3304 15.25 11.2304C14.89 11.1304 13.94 11.3904 13.12 11.7904Z" fill="white"/>
<path d="M29.19 11.6904C27.62 12.3104 27.25 13.1304 28.27 13.7904C28.73 14.0504 29.25 13.9904 30.53 13.5604C31.81 13.1004 32.27 13.0404 32.66 13.3604C33.32 13.8804 33.25 14.1504 32.3 14.5704C31.64 14.8704 31.48 14.8704 31.48 14.5004C31.48 14.2004 31.25 14.1104 30.82 14.2004C30.07 14.4004 29.97 14.8204 30.59 15.0504C30.79 15.1204 30.56 15.1504 30.03 15.0804C28.98 14.9504 28.98 15.1504 30.33 17.2404C31.08 18.4504 31.31 18.5804 32.07 18.3904C33.19 18.1304 34.01 17.2104 34.43 15.6704C34.99 13.6004 34.86 13.1104 33.38 12.0304C31.84 10.9004 31.29 10.8704 29.19 11.6904Z" fill="white"/>
<path d="M10.23 19.4304C9.67002 20.5104 9.44002 23.1004 9.84002 23.8304C10.04 24.2204 10.56 24.6504 11.02 24.8104C11.64 25.0704 11.81 25.3704 11.81 26.2504C11.81 27.5004 11.32 28.0504 10.73 27.4604C10.07 26.8004 9.52002 27.0704 9.52002 27.9804C9.52002 30.6004 11.39 33.8504 13.69 35.2904C15.23 36.2704 16.54 36.5404 16.87 35.9804C17 35.8204 16.54 34.4404 15.89 32.9304C15.2 31.3204 14.61 29.2604 14.41 27.9104C14.25 26.6304 13.95 24.5604 13.75 23.2904C13.36 21.1304 13.29 20.9604 12.34 20.6704C11.78 20.5104 11.16 20.0104 10.96 19.5904C10.59 18.8704 10.52 18.8704 10.23 19.4304Z" fill="white"/>
<path d="M19.5099 39.1704C21.0799 44.4804 21.6399 45.2704 23.0499 44.1204C23.9399 43.4604 24.6599 41.5304 25.0799 38.7104L25.2799 37.3704L23.5099 37.2104C22.5299 37.1404 21.1199 36.7504 20.3599 36.3604C19.6099 35.9704 18.8799 35.6404 18.7199 35.6404C18.5599 35.6304 18.9199 37.2104 19.5099 39.1704Z" fill="white"/>
</svg>
