<svg width="47" height="47" viewBox="0 0 47 47" fill="none" xmlns="http://www.w3.org/2000/svg">
<path d="M18.5279 0.491116C7.93785 2.75112 0.557855 11.4811 0.0278546 22.2711C-0.462145 33.0011 5.53785 41.8211 16.0378 45.6911C18.2978 46.5411 18.8579 46.6111 23.0879 46.6111C27.0879 46.5811 28.0079 46.4811 30.3079 45.7211C34.0479 44.5411 36.7978 42.8011 39.8178 39.7811C44.2478 35.3811 46.6079 29.6811 46.6079 23.3511C46.6079 14.4011 40.6678 5.28112 32.5978 1.93112C28.0078 0.00111866 23.0579 -0.488884 18.5279 0.491116ZM32.2378 3.51112C34.6278 4.69112 39.5879 8.33111 39.2279 8.66111C39.1579 8.73111 37.8479 8.30112 36.3379 7.68112C32.4979 6.17112 29.4179 5.42112 26.4979 5.38112C24.3679 5.35112 23.8778 5.45112 22.8578 6.13112C21.3778 7.15112 20.3679 9.21112 20.5279 10.7511C20.6279 11.5011 20.4279 12.2611 20.0079 12.9511C19.3479 14.0011 18.6679 14.3911 18.6679 13.7011C18.6679 12.9511 17.9179 13.5011 16.4678 15.3411C15.5778 16.5211 14.6979 17.3111 14.3379 17.3111C14.0079 17.3111 13.0879 16.9811 12.3379 16.6211C10.5679 15.7011 9.38785 15.7311 8.00785 16.8211C6.62785 17.8711 6.26785 19.0211 5.93785 23.9011C5.54785 28.9811 5.80785 29.6111 7.11785 26.7211C7.67785 25.5111 8.19785 24.5211 8.29785 24.5211C8.42785 24.5211 8.39785 25.0811 8.29785 25.8011C8.03785 27.3411 8.65785 27.9311 9.18785 26.5911C9.34785 26.1011 9.74785 24.4311 10.0079 22.9211C10.2679 21.3811 10.5679 20.0711 10.6279 19.9711C10.7279 19.9011 11.1179 20.2011 11.5779 20.6611C12.0079 21.1511 12.7879 21.7411 13.3479 22.0411C14.2379 22.5011 14.4278 22.5011 15.2878 22.0711C15.8478 21.8111 16.5378 21.2811 16.8578 20.9211C17.4178 20.3011 17.4479 20.3011 18.3379 21.5111C19.8779 23.6411 22.6979 25.8411 23.8779 25.8411C25.6179 25.8411 25.1279 24.5011 22.9579 23.4811C21.7079 22.8911 21.5779 22.7611 22.1679 22.6611C22.5979 22.5611 23.3478 22.8611 23.9678 23.3211C24.5578 23.7511 25.6779 24.4711 26.4579 24.8611C27.2079 25.2911 27.8379 25.7511 27.8379 25.9111C27.8379 26.0411 25.5379 26.1711 22.7579 26.1711H17.7079L15.8679 28.6311C14.8879 29.9711 14.0679 31.3511 14.0679 31.6511C14.0679 31.9811 14.4579 32.6711 14.8879 33.2211L15.7379 34.2011L15.5378 32.7911C15.4078 32.0411 15.4378 31.4111 15.6078 31.4111C15.7378 31.4111 16.2979 32.1311 16.8179 32.9811C17.8979 34.7211 18.2579 34.3911 17.6679 32.2311C16.9479 29.6411 17.7979 28.4611 19.6979 29.4711C20.5879 29.9311 20.6779 29.7311 20.1279 28.6511C19.8679 28.1311 19.6379 27.6711 19.6379 27.6011C19.6379 27.5311 20.2979 27.4711 21.1179 27.4711C22.2679 27.4711 22.8279 27.6711 23.4179 28.2911C23.8779 28.7211 24.2379 29.2711 24.2379 29.5011C24.2079 30.4511 22.9279 32.6811 21.0279 35.0811C19.4179 37.0811 18.5679 37.8411 17.0279 38.6211C14.5379 39.9011 13.7479 40.6511 13.7479 41.9011C13.7479 42.4211 13.6179 42.8811 13.4479 42.8811C13.2879 42.8811 12.0079 42.1311 10.6279 41.2111C2.26785 35.6011 -0.852146 24.3211 3.27785 14.7111L3.93785 13.1011L4.65785 13.8211C5.34785 14.5111 5.50785 14.5411 8.91785 14.2511C12.9879 13.9211 14.5579 14.1211 15.0479 15.0011C15.3779 15.5911 15.4779 15.5611 16.5579 14.3411C17.2179 13.6211 17.9979 13.0311 18.3279 13.0311C18.6579 13.0311 19.2478 12.6411 19.6078 12.1811C20.3278 11.2611 20.5279 10.4111 19.9979 10.4111C19.8379 10.4111 19.7679 10.1111 19.8679 9.75112C19.9979 9.23112 19.8679 9.09112 19.2779 9.06112C18.6179 9.03112 18.6579 8.99111 19.5079 8.73111C20.6579 8.40111 21.2179 7.48112 20.5579 7.06112C20.3279 6.93112 20.2979 6.80111 20.4879 6.80111C20.9479 6.80111 22.2579 5.55111 22.2579 5.09111C22.2579 4.86111 21.7679 4.83112 20.8779 4.96112C19.5379 5.16112 19.4978 5.12111 20.2878 4.66111L21.1078 4.20112L19.9579 4.17112C19.3379 4.17112 18.0179 4.53112 17.0679 4.99112C16.1179 5.42112 15.4279 5.65111 15.5279 5.48111C15.8279 4.99111 15.1379 5.09112 14.0479 5.64112C13.4879 5.94112 13.0679 6.07112 13.0679 5.97112C13.0679 5.90112 13.6279 5.54112 14.3179 5.18112C15.8279 4.39112 18.4878 3.93112 22.6778 3.64112C25.1078 3.51112 25.8578 3.34111 25.8578 2.98111C25.8578 2.72111 25.5279 2.49112 25.1379 2.49112C24.6179 2.46112 24.7479 2.36112 25.5279 2.19112C27.4879 1.77112 29.4878 2.16112 32.2378 3.51112ZM27.8478 7.48111C27.1278 7.68111 27.0979 7.74112 27.6179 7.97112C27.9179 8.10112 28.1778 8.40111 28.1778 8.66111C28.1778 8.92111 28.4779 9.12111 28.8379 9.12111C29.2679 9.12111 29.4279 9.28112 29.2979 9.61112C29.1379 9.97112 29.3278 10.1011 30.0178 10.1311C30.5778 10.1611 30.7379 10.2311 30.4079 10.3311C29.7879 10.4911 29.5879 11.0811 30.1479 11.0811C30.3479 11.0811 30.4779 11.3111 30.4779 11.5711C30.4779 11.8311 30.8678 12.1311 31.3979 12.2611C32.8078 12.5611 33.0079 12.6511 32.2179 12.6911C31.3679 12.7211 31.2378 13.2111 31.9878 13.5111C32.2478 13.6111 32.4179 13.8411 32.2878 14.0011C32.1879 14.2011 32.5178 14.5911 33.0079 14.9211C33.4979 15.2211 33.9879 15.5111 34.0579 15.5811C34.2879 15.7411 34.3179 18.3011 34.0879 18.1411C33.9579 18.0411 33.6578 17.5211 33.3979 16.9311C32.9678 15.8511 31.2679 13.5211 28.9379 10.8311C28.2779 10.0411 27.3979 8.89112 26.9678 8.27112L26.1778 7.15112L27.4278 7.18112C28.4978 7.21112 28.5678 7.25111 27.8478 7.48111ZM18.3379 9.25112C18.3379 9.32112 18.1079 9.48112 17.8179 9.58112C17.5579 9.68112 17.4279 9.65112 17.5179 9.45112C17.7079 9.12112 18.3379 8.98112 18.3379 9.25112ZM41.5579 11.8411C41.7579 12.0011 41.9479 12.3011 41.9479 12.4611C41.9479 12.7911 38.5079 10.9511 37.6879 10.2011C37.1579 9.74112 40.7979 11.2511 41.5579 11.8411ZM27.8778 12.9511C30.5978 15.5411 30.8278 16.2011 28.5978 15.0811C27.9078 14.7211 26.9879 14.3311 26.5279 14.1911C25.7079 13.9611 25.7079 13.9611 26.6579 14.9811C27.7779 16.1611 27.2479 16.3611 25.7079 15.3411C24.4579 14.5211 24.0979 14.5211 24.5579 15.3111C25.0779 16.3311 24.9479 16.3611 23.7379 15.6411C22.8479 15.1211 22.6579 14.8511 22.9179 14.5211C23.1179 14.2911 23.3479 13.4411 23.4379 12.6811C23.6379 11.1411 24.0579 10.4211 24.7479 10.4211C25.0279 10.4311 26.4378 11.5811 27.8778 12.9511ZM39.8478 13.6111C42.0478 15.1211 44.1479 17.0911 44.4079 17.9411C44.6079 18.5611 44.0178 18.1711 41.8778 16.3011C40.3678 14.9611 38.5279 13.3811 37.8079 12.7911C36.6879 11.8411 36.6579 11.7711 37.5079 12.2011C38.0779 12.4611 39.0978 13.1211 39.8478 13.6111ZM42.4779 20.0111C44.7779 22.7711 44.9079 22.9911 44.9079 24.5411C44.9079 25.4611 44.8379 26.1811 44.7479 26.1811C44.6779 26.1811 44.2878 25.5611 43.8979 24.7711C43.1078 23.2011 40.2279 18.2111 39.4079 17.0011C38.3079 15.4111 39.8779 16.9611 42.4779 20.0111ZM32.5978 19.0211L33.8478 21.4111L32.6379 20.2611C31.9479 19.6011 31.5179 18.9511 31.6179 18.6911C31.9179 17.8711 31.1579 17.3511 29.9479 17.5411C29.3279 17.6411 28.8279 17.6411 28.8279 17.5411C28.8279 17.3811 30.3979 16.7911 31.1579 16.6911C31.2879 16.6611 31.9078 17.7411 32.5978 19.0211ZM7.60785 19.5111L7.47785 20.4311L8.29785 19.4511C8.75785 18.8911 9.14785 18.6311 9.14785 18.8311C9.14785 19.3211 7.86785 20.9311 7.47785 20.9311C7.14785 20.9311 7.08785 19.1911 7.40785 18.8611C7.73785 18.5011 7.76785 18.5611 7.60785 19.5111ZM32.2779 21.4511C33.0979 22.2711 33.7579 22.7611 33.7579 22.5311C33.7579 22.2311 33.8579 22.2011 34.1179 22.4611C34.6079 22.9511 34.5079 30.8611 33.9179 35.3811C33.3979 39.3511 32.6079 42.8611 32.1179 43.3511C31.9879 43.4811 30.8379 43.9111 29.5879 44.2711C24.7679 45.6111 17.3578 45.3211 17.3578 43.7811C17.3578 43.4211 17.1279 42.8611 16.8379 42.5311C16.5079 42.1411 16.4079 41.7111 16.5378 41.2211C16.7678 40.5011 16.7979 40.5311 17.1579 41.5811C17.4179 42.4011 17.7778 42.7611 18.4678 42.9611C19.7778 43.2911 19.8079 43.1611 18.7979 42.1111C17.9479 41.2911 17.9479 41.2211 18.4979 40.6011C19.3479 39.6811 19.9379 39.7811 20.3379 40.9311C20.7979 42.1811 21.1879 42.1811 21.4579 40.9011C21.6179 40.1811 21.5279 39.7211 21.1279 39.2911C20.5679 38.6711 20.6078 38.5711 21.6479 36.8011C22.2679 35.8211 23.7779 33.8811 24.9979 32.5411L27.2579 30.1111L26.5378 28.9611L25.8179 27.8111H27.9179C29.1979 27.8111 30.2779 27.6511 30.6379 27.3511C31.2579 26.9211 31.2279 26.8311 30.0479 25.3211C29.3879 24.4711 28.8379 23.5211 28.8379 23.2211C28.8379 22.9211 28.6378 22.4011 28.3778 22.0711C28.0178 21.5511 28.0479 21.3811 28.6079 20.6911C29.6179 19.5511 30.6379 19.7411 32.2779 21.4511ZM8.16785 23.5511C7.96785 23.9111 7.77785 24.2111 7.70785 24.2111C7.63785 24.2111 7.63785 23.9111 7.73785 23.5511C7.83785 23.1911 8.03785 22.8911 8.22785 22.8911C8.39785 22.8911 8.35785 23.1911 8.16785 23.5511ZM43.1979 27.7811C43.9879 29.7211 44.0879 30.6011 43.5879 30.9311C43.4279 31.0311 43.2579 30.8311 43.2579 30.5011C43.2579 30.1411 43.0579 29.2911 42.8279 28.6011C41.6179 25.1511 41.9179 24.5611 43.1979 27.7811ZM39.6579 30.7611C40.5479 35.6811 40.5079 37.0211 39.5879 37.9111L38.8379 38.6011V32.7311C38.8379 29.5211 38.8679 26.9211 38.9379 26.9911C38.9979 27.0211 39.3279 28.7311 39.6579 30.7611ZM37.6879 36.6311C37.7879 39.6511 37.7579 39.7511 36.8679 40.5011C35.7878 41.4511 35.6179 41.3511 36.0479 40.0711C36.4379 38.8911 36.9978 33.5111 37.0978 30.5311L37.1278 28.3011L37.3579 30.9211C37.4879 32.3711 37.6479 34.9311 37.6879 36.6311ZM35.1879 37.3911C34.7979 40.7711 34.4679 42.2811 34.1679 42.4111C33.8379 42.5111 33.7379 42.3811 33.9079 41.9511C34.3679 40.4411 35.0878 35.8811 35.3178 33.0611C35.4478 31.1211 35.5779 30.4411 35.6778 31.2611C35.7178 31.9811 35.5179 34.7311 35.1879 37.3911ZM16.2679 43.5611C17.1579 44.2511 16.7578 44.4511 15.6778 43.8911C15.2178 43.6311 15.0579 43.2311 15.0879 42.3211C15.1579 41.3411 15.1878 41.2711 15.2878 41.9911C15.3478 42.4711 15.8079 43.1911 16.2679 43.5611Z" fill="white"/>
<path d="M31.1278 21.6511C31.1278 21.9111 31.7878 22.9911 32.6078 24.0111C34.3778 26.3111 34.7078 25.5211 32.9978 23.0311C31.8778 21.4211 31.1278 20.8611 31.1278 21.6511Z" fill="white"/>
</svg>
