<svg width="49" height="48" viewBox="0 0 49 48" fill="none" xmlns="http://www.w3.org/2000/svg">
<path d="M18.8827 0.450345C15.9927 1.04034 11.1427 3.40035 8.65272 5.44035C5.27272 8.20035 2.42272 12.4903 0.882718 17.1203C-0.167282 20.3303 -0.297285 25.6803 0.582715 29.1603C3.56271 41.1603 14.6527 49.0403 26.5927 47.6303C35.1827 46.6103 41.9727 41.8603 45.7427 34.2503C47.4527 30.7703 48.1727 27.7903 48.1727 23.9203C48.1727 20.0503 47.4527 17.0303 45.7427 13.5903C42.4327 6.90035 36.9527 2.41035 29.9327 0.630345C26.9527 -0.139655 22.2927 -0.209655 18.8827 0.450345ZM31.1527 2.68034C34.7627 3.89034 37.5127 5.63035 40.1427 8.32035C42.7627 10.9803 44.2427 13.3103 45.4927 16.7503C46.2827 18.9103 46.3827 19.5703 46.3827 23.7403C46.3827 28.0403 46.3127 28.5003 45.3627 31.1503C42.9327 38.0103 37.6227 43.0603 30.6327 45.2903C27.2227 46.3703 20.7627 46.3703 17.5127 45.2603C9.18271 42.4403 3.70272 36.3703 2.06272 28.1703C0.782718 21.7703 2.32272 15.3803 6.42272 10.0603C9.27272 6.35035 14.3227 3.14035 18.9827 2.09035C22.3227 1.33035 28.0327 1.60034 31.1527 2.68034Z" fill="white"/>
<path d="M24.0327 3.27035C21.9327 4.61035 17.0427 9.40036 15.0427 12.0904C13.4327 14.2504 11.7627 17.2704 11.7627 17.9904C11.7627 18.4204 13.6627 17.4304 18.5827 14.3804C21.6027 12.5104 22.9127 12.0204 21.9927 13.1304C21.8327 13.3604 21.2727 14.6404 20.8127 15.9804C19.3027 20.3404 18.3227 21.1304 18.3227 17.9804C18.3227 16.0104 17.8927 15.3904 17.5027 16.7004C17.1727 17.7204 17.2427 20.6404 17.6327 21.0304C18.4827 21.8804 20.7127 20.4104 22.3927 17.9104C23.0127 17.0204 23.5727 16.4004 23.6727 16.5704C23.8727 16.9004 23.6427 17.4204 22.4227 19.4604C21.5027 20.9704 21.4427 21.3304 21.4727 24.2204C21.4727 26.3204 21.6727 27.9304 22.0627 29.1104C22.6527 30.8504 22.6527 30.9104 22.0627 31.3404C21.5027 31.7704 21.5027 31.9303 21.9627 35.2104L22.4527 38.6904L21.5327 40.3004C20.4527 42.2004 20.4127 42.3703 21.2327 42.1003C21.7527 41.9403 21.8227 42.0304 21.6927 42.5904C21.4927 43.3104 22.0527 43.5103 22.4427 42.8503C22.6427 42.5504 22.7727 42.6904 22.9027 43.2404L23.1027 44.0604L23.5627 43.2704C23.9227 42.5804 23.9227 41.8304 23.5627 38.7404C23.3327 36.7104 23.2027 34.9704 23.3027 34.8704C23.7627 34.4104 25.8927 35.8504 27.6027 37.7604C29.2727 39.7004 30.5527 40.6104 30.9827 40.1904C31.0527 40.1204 30.6827 38.9104 30.1327 37.5303C29.0127 34.7704 28.9827 34.1504 29.9027 33.5904C30.3927 33.2904 30.6527 33.3904 31.3427 34.2104C31.7727 34.7304 32.3627 35.6904 32.6227 36.2404C32.8827 36.8304 33.2127 37.3204 33.3727 37.3204C33.5327 37.3204 33.8327 36.8304 34.0327 36.2404C34.3927 35.3204 34.3627 35.1204 33.7327 34.7304C32.3227 33.7804 31.1427 31.5804 30.7527 29.1504C30.3927 26.9204 30.3927 26.7604 31.0127 26.3304C31.4427 26.0304 31.9927 24.7204 32.6227 22.5904C33.1427 20.7504 33.6727 19.2804 33.7727 19.2804C34.2327 19.2804 34.7927 24.1004 34.9527 29.4504C35.1527 35.9404 34.7927 38.1104 33.0827 41.1604C32.5227 42.1104 32.1027 42.9604 32.1027 43.0604C32.1027 43.6204 33.8727 43.0304 35.6127 41.9104C41.0527 38.3304 45.2227 31.3804 45.2227 25.8104C45.2227 18.5304 40.2027 8.89036 34.4627 5.21036C32.7927 4.13036 30.8527 3.34036 30.5927 3.64036C30.4927 3.74036 30.6627 4.36035 30.9227 5.02035C32.2027 8.00035 31.1527 10.8904 27.7127 13.9104C26.0427 15.3504 26.0427 15.3504 25.4827 14.7004C24.6927 13.7504 24.1427 10.7604 24.5327 9.71036C24.6927 9.22036 25.0927 7.71035 25.3827 6.27035C25.6827 4.86035 26.0027 3.38036 26.1027 2.96036C26.3327 2.02036 25.9627 2.05035 24.0327 3.27035ZM23.0827 8.19035C22.7827 8.75035 22.4627 9.11035 22.3627 9.01035C22.1627 8.81035 23.1127 7.17035 23.4127 7.17035C23.5027 7.17035 23.3427 7.63035 23.0827 8.19035ZM19.9627 9.30036C19.9627 9.86036 18.8127 11.1004 18.3227 11.1004C17.8327 11.1004 17.9327 10.8004 18.6827 9.76035C19.4027 8.71035 19.9627 8.52036 19.9627 9.30036ZM32.2927 12.8104C31.7327 14.7504 30.4227 16.9404 28.8827 18.5804C27.8027 19.7304 27.3127 19.7304 26.8827 18.5504C26.6827 17.9904 26.9827 17.5304 28.4927 16.0604C29.5127 15.0404 30.8527 13.3404 31.4427 12.2904C32.6927 10.0604 33.0527 10.2904 32.2927 12.8104ZM28.2327 25.4404C28.9527 26.2604 29.5127 31.2804 28.9527 32.0304C28.4327 32.7204 28.3327 32.4904 27.8327 29.1404C27.6327 27.8004 27.4027 26.2904 27.3427 25.7604C27.1827 24.7504 27.5127 24.6204 28.2327 25.4404Z" fill="white"/>
<path d="M9.9628 8.22034C8.0928 10.6803 5.7328 15.5703 5.0128 18.3903C4.0628 22.1003 4.1928 27.8403 5.3428 31.3503C6.3628 34.5303 8.2628 37.4503 10.5628 39.4803C12.1728 40.9203 17.5828 43.9103 18.5328 43.9103C18.8328 43.9103 18.5628 43.1203 17.7128 41.5203C15.5828 37.5503 14.6928 33.4803 14.6928 27.6803C14.6928 25.6103 14.7928 23.7403 14.9228 23.5503C15.0528 23.3203 15.4128 23.4803 15.9428 24.0403C16.3728 24.5003 16.8628 24.8903 17.0628 24.8903C17.5228 24.8903 20.5028 22.0403 20.2728 21.8103C20.1728 21.7103 19.5528 22.0103 18.8928 22.4703L17.6828 23.2903L17.3828 22.4703C17.1828 22.0403 16.9528 21.1303 16.8628 20.4403C16.3728 17.4203 16.3428 17.3603 15.6128 17.3603C14.4928 17.3603 12.3628 18.7403 11.5428 19.9503C10.1328 22.0503 9.4728 24.4103 9.4728 27.4603C9.4728 31.0003 10.0928 33.4603 11.7728 36.6803C12.4928 38.0203 13.0228 39.1703 12.9828 39.2403C12.9128 39.2703 12.1628 38.5803 11.2428 37.7303C9.3428 35.8303 7.7628 33.3003 6.8428 30.7103C5.6628 27.3603 6.0528 21.3003 7.7628 16.3803C8.7128 13.6903 9.8628 11.1303 10.1228 11.1303C10.2528 11.1303 10.5128 11.6903 10.7428 12.3803C10.9728 13.0703 11.4328 13.9903 11.7628 14.4103L12.3228 15.1603L12.9128 14.2703C13.4728 13.4503 13.4728 13.3203 12.7828 11.5803C12.4228 10.5603 12.0928 9.25034 12.0928 8.66034C12.0928 7.45034 11.8328 6.53034 11.4728 6.53034C11.3428 6.52034 10.6528 7.30034 9.9628 8.22034Z" fill="white"/>
</svg>
