<svg width="48" height="48" viewBox="0 0 48 48" fill="none" xmlns="http://www.w3.org/2000/svg">
<path d="M18.836 0.418206C17.586 0.678206 15.1659 1.59821 13.4559 2.41821C10.8659 3.69821 9.84594 4.4482 7.35594 6.9082C4.89594 9.3682 4.07594 10.4482 2.82594 12.8782C-0.784059 19.9982 -0.944052 27.1782 2.39595 34.1682C4.78595 39.2182 8.39595 42.8582 13.6159 45.4482C17.056 47.1882 19.686 47.7782 23.916 47.7782C28.996 47.7782 32.5459 46.7282 36.7059 44.0082C44.3459 39.0582 48.5759 30.1382 47.5659 21.1482C46.9459 15.7082 44.6759 11.1082 40.646 7.07821C37.796 4.22821 34.646 2.2582 31.0059 1.0382C27.7259 -0.0417987 22.246 -0.331794 18.836 0.418206ZM29.136 2.05821C34.446 3.36821 39.956 7.33821 42.776 11.8282C45.106 15.5982 45.9559 18.3582 46.1259 23.0482C46.3259 27.4082 46.0259 29.2782 44.6859 32.6582C42.7859 37.5082 39.076 41.5782 34.646 43.8082C30.646 45.8082 28.4459 46.2982 23.5959 46.2682C19.0059 46.2382 17.1659 45.7782 12.9359 43.5782C9.52594 41.8082 5.78594 37.9082 3.98594 34.3282C0.635945 27.5082 0.805944 19.3382 4.37594 12.8482C6.17594 9.5982 10.2459 5.66821 13.4259 4.05821C18.2859 1.66821 24.316 0.878206 29.136 2.05821Z" fill="white"/>
<path d="M22.6059 7.76822C21.2259 10.4582 21.2259 10.6182 22.3459 11.3482C23.3259 11.9382 23.4659 11.9382 24.3759 11.4782C24.9359 11.1782 25.4259 10.9182 25.4959 10.8882C25.6959 10.7282 23.8259 6.45822 23.5559 6.45822C23.3959 6.45822 22.9759 7.04822 22.6059 7.76822ZM23.1359 10.9782C23.0059 11.0782 22.7759 11.0082 22.5759 10.8182C22.3759 10.6182 22.3759 10.1982 22.6759 9.53822L23.0659 8.58823L23.1959 9.66823C23.2659 10.2982 23.2359 10.8882 23.1359 10.9782Z" fill="white"/>
<path d="M20.3459 13.0482C20.0159 13.8382 18.9059 16.5282 17.8559 18.9882C16.8359 21.4782 15.9159 23.5182 15.8259 23.5182C15.1659 23.5182 13.4359 22.1382 11.2959 19.8782C8.96588 17.3882 8.73588 17.1882 8.34588 17.7482C7.98588 18.2082 7.62588 18.3082 6.57588 18.1082C5.32588 17.9082 5.23589 17.9482 5.00589 18.8282C4.51589 20.5682 4.74589 26.1782 5.36589 28.1082C8.05589 36.2382 15.5959 41.8882 23.7659 41.8882C32.3559 41.8882 40.2659 35.6882 42.4659 27.2882C43.0559 25.0282 43.1259 20.6582 42.5959 18.2682C42.2659 16.6982 42.1659 16.5982 41.4159 16.7882C39.3459 17.3082 38.6959 17.3482 38.6959 16.9882C38.6959 16.2382 38.1359 16.6882 36.7259 18.6282C35.2459 20.6582 32.9559 22.8582 32.3259 22.8582C32.1259 22.8582 30.6859 20.3982 29.1159 17.3482C26.3959 12.0982 26.2259 11.8682 25.3459 11.9682C23.6359 12.1682 22.4559 12.1282 21.7059 11.8682C21.0659 11.6682 20.9059 11.7982 20.3459 13.0482ZM23.3659 13.9682C23.4659 14.4582 23.6659 17.9982 23.7959 21.8082L24.0259 28.7582H23.1759C21.0159 28.7582 17.3659 26.1682 17.3659 24.6282C17.3659 24.0082 18.4859 20.7882 20.8459 14.5882C21.6359 12.4882 21.7359 12.4282 22.4559 12.7482C22.8759 12.9482 23.2659 13.4782 23.3659 13.9682ZM40.5559 19.0882C40.2959 21.5182 38.5559 24.5982 36.0959 27.0582C33.7959 29.3582 29.6359 32.0482 27.0059 32.9282C25.1659 33.5482 24.9059 33.3182 24.9059 30.8582V29.1482L27.8559 27.4782C31.6559 25.2482 34.8759 22.7182 36.8759 20.3582C38.8159 17.9982 39.2659 17.5982 40.0859 17.5982C40.6459 17.6082 40.7159 17.7682 40.5559 19.0882ZM8.01588 19.0482C8.01588 19.0782 8.73588 20.5582 9.65588 22.3582C10.9959 25.1482 11.7259 26.0982 14.2459 28.6182C17.3259 31.7382 19.4659 33.0482 22.1159 33.4682C24.2459 33.8282 24.3159 33.9282 24.5059 37.4082C24.7059 41.0782 24.8959 40.9182 20.7959 40.0682C13.9059 38.6282 8.23589 33.5082 6.36589 27.0182C5.80589 25.0482 5.54589 19.7082 6.00589 18.9782C6.13589 18.7482 6.56588 18.6482 7.12588 18.7782C7.62588 18.9182 8.01588 19.0182 8.01588 19.0482Z" fill="white"/>
<path d="M39.276 13.9682C38.686 15.8082 38.916 16.4982 40.026 16.1682C41.766 15.7082 41.866 15.4782 40.976 13.8382C40.546 13.0182 40.086 12.3582 39.996 12.3582C39.866 12.3582 39.566 13.0782 39.276 13.9682ZM40.416 15.1482C40.546 15.4082 40.486 15.7082 40.316 15.8082C40.116 15.9382 39.986 15.7082 39.986 15.3482C39.996 14.5282 40.196 14.4582 40.416 15.1482Z" fill="white"/>
<path d="M6.47596 14.4882C5.52596 16.3582 5.45595 16.8782 6.21595 17.2782C6.83595 17.6082 6.87596 17.5782 6.67596 16.8182C6.54596 16.2982 6.60596 15.9682 6.83596 15.9682C7.03596 15.9682 7.19596 16.2682 7.19596 16.6282C7.19596 16.9882 7.35597 17.2882 7.52597 17.2882C8.21597 17.2882 8.24596 16.2082 7.62596 14.8982L6.96595 13.5182L6.47596 14.4882Z" fill="white"/>
</svg>
