<svg width="47" height="47" viewBox="0 0 47 47" fill="none" xmlns="http://www.w3.org/2000/svg">
<path d="M20.2036 0.190434C10.8236 1.57043 3.41357 8.03043 0.783567 17.1104C-0.296433 20.9504 -0.266443 26.5904 0.913557 30.1304C2.45356 34.7204 5.08356 38.6304 8.68356 41.6404C10.8836 43.4404 13.1136 44.6204 16.2636 45.7104C18.7936 46.5304 19.4736 46.6304 23.4836 46.6004C26.7936 46.6004 28.4036 46.4404 29.8836 46.0104C34.4436 44.6304 38.5736 41.7804 41.5936 38.0104C44.9736 33.7504 46.3836 30.0104 46.6736 24.6304C46.9036 20.3704 46.2436 17.1804 44.2436 13.0504C42.9936 10.4304 42.3736 9.57044 39.8836 7.15044C36.5336 3.87044 34.4036 2.49044 30.6036 1.18044C27.5536 0.120439 23.3836 -0.269566 20.2036 0.190434ZM27.4236 1.33043C27.4236 1.43043 26.5336 1.66043 25.4536 1.89043C24.3736 2.09043 23.4836 2.35044 23.4836 2.48044C23.4836 2.58044 24.7636 2.61043 26.3036 2.55043C27.8436 2.49043 29.9436 2.55044 30.9636 2.71044L32.8336 2.94043L30.8636 3.33043C28.7636 3.72043 28.9236 3.92043 31.7136 4.28043C35.8836 4.87043 40.3736 8.51043 42.7636 13.3004C44.6336 17.0104 45.2236 20.0204 45.0636 24.6804L44.9336 28.4204L43.0936 32.1304C42.0736 34.1604 40.9336 36.1004 40.6036 36.4304C40.0436 36.9204 40.1136 36.4604 41.1636 33.4504C42.5036 29.6804 43.0336 27.4504 42.6036 27.4504C42.4736 27.4504 41.9136 28.4704 41.4236 29.6804C39.8136 33.4204 36.8936 38.6704 35.5536 40.1104C34.3436 41.4204 30.0136 44.0504 30.5336 43.1604C30.6936 42.9004 31.3536 41.8804 32.0436 40.9004C35.7836 35.3604 37.7536 31.5504 39.1936 27.0304C40.1736 23.9804 40.5036 21.5504 39.9436 21.5504C39.7836 21.5504 39.3236 22.7304 38.9236 24.1704C37.4436 29.2204 33.1536 36.8004 29.5736 40.5004C26.4936 43.7504 24.5836 45.1604 23.2736 45.1604H22.1536L24.8436 41.6504C27.8236 37.7104 30.0236 33.3804 30.8836 29.9104C31.2136 28.4704 31.4436 26.2704 31.4036 24.0104C31.4036 20.6604 31.4736 20.3404 32.2236 19.2904C34.9436 15.6804 32.1936 9.84044 27.3336 8.93044C26.6436 8.80044 25.8536 8.86044 25.4636 9.06044C25.0036 9.32044 24.7736 9.32044 24.7736 9.09044C24.7736 8.47044 23.5236 8.76043 22.5436 9.58043C21.3636 10.5604 21.0036 10.6304 21.5636 9.74044C22.2236 8.72044 21.6336 8.59044 18.8036 9.15044C16.8636 9.58044 14.8036 10.3604 11.4936 12.0404C8.93356 13.2904 6.77357 14.3404 6.64357 14.3404C5.95357 14.3404 6.57356 12.5404 7.85356 10.8304C11.1036 6.37043 16.8736 2.79044 22.9736 1.45044C23.8736 1.24044 27.4236 1.17043 27.4236 1.33043ZM20.8636 9.83043C20.8636 9.90043 20.4736 10.2904 19.9736 10.7504C19.5136 11.1804 19.1836 11.3704 19.2836 11.2104C19.3836 11.0104 19.5436 10.6204 19.6436 10.2904C19.8136 9.83044 20.8636 9.44043 20.8636 9.83043ZM24.7936 11.0404C25.7136 10.3804 25.7136 10.3804 25.5436 11.0404C25.3836 11.7304 25.9036 11.9604 26.2636 11.3704C26.5236 10.9804 27.1136 10.9404 27.0136 11.3004C26.9436 11.4604 27.4036 12.0504 27.9936 12.5804C28.8836 13.4704 29.0436 13.8304 29.0436 15.1404C29.0436 16.3904 29.1436 16.6504 29.5336 16.4804C30.9736 15.8904 31.0736 15.9604 30.0236 16.7404C28.1236 18.1804 27.9936 19.1004 29.7936 18.2504C30.1836 18.0504 29.8636 18.5104 29.0436 19.2304C27.7936 20.3804 27.7036 20.5704 28.3836 20.4104L29.2036 20.1804L28.3836 20.7704C27.9536 21.1004 27.2036 21.6904 26.7436 22.1104L25.9236 22.8604L26.8436 22.7004C27.3336 22.5704 27.7336 22.5704 27.7336 22.6704C27.7336 22.7704 26.0636 23.9504 24.0636 25.2904L20.3536 27.7204L19.9636 26.3404C19.6636 25.2204 19.6036 25.1304 19.5736 25.8504C19.5436 26.3404 19.4136 27.1004 19.2436 27.5204C18.8136 28.6004 16.2236 30.3704 14.7536 30.6004C13.2736 30.8304 13.7036 31.2904 15.6736 31.5504C16.8536 31.7104 17.6136 31.5804 18.9836 31.0304C21.4436 30.0104 22.1636 30.2404 23.6036 32.6004C24.2236 33.6204 25.1736 34.9004 25.7336 35.4204C26.2936 35.9804 26.7536 36.5004 26.7536 36.6704C26.7536 37.3304 25.5436 36.8304 24.3936 35.7204C22.7236 34.1104 22.7836 34.8004 24.4936 36.7404C25.6136 37.9904 25.7436 38.2804 25.2836 38.4504C24.9536 38.5804 24.4336 38.3804 23.9436 37.9304C22.9936 37.0104 22.8936 37.4404 23.8136 38.5904C25.3236 40.4904 23.9436 40.3604 22.1436 38.4304C21.3936 37.6104 20.7036 37.0204 20.6336 37.0904C20.4736 37.2504 21.3536 38.7304 22.4036 40.0104C22.8336 40.5304 23.1536 41.1604 23.1536 41.4204C23.1536 42.3704 22.1736 41.8104 20.5636 39.9804C18.4036 37.5504 18.4036 38.1804 20.5636 40.8304C22.1036 42.7704 22.4336 43.8504 21.4836 43.8504C21.0536 43.8504 19.4836 42.2104 17.0536 39.1604C15.2536 36.9604 14.4336 36.2404 15.4136 37.7804C15.7136 38.2404 16.2036 38.9904 16.4936 39.4904C16.8236 40.0104 17.7036 41.2604 18.4636 42.2804C19.2536 43.3004 19.8736 44.2204 19.8736 44.3104C19.8736 45.3604 16.2936 41.8204 13.3836 37.8804C12.3636 36.5004 11.4836 35.4204 11.4136 35.4904C11.1836 35.7204 13.5436 39.3304 15.4436 41.7204C16.4636 43.0004 17.1136 44.0504 16.8836 44.1504C16.3636 44.3104 11.9636 39.8904 9.80356 36.9704C8.78356 35.6304 7.90355 34.4404 7.83355 34.3804C7.76355 34.3104 7.67356 34.3104 7.57356 34.4104C7.27356 34.6704 10.7536 39.6304 12.7236 41.7604C13.8036 42.9104 14.5636 43.8604 14.3636 43.8604C14.1636 43.8604 12.9536 43.1404 11.6036 42.2504C7.89356 39.7604 4.12356 35.5604 4.12356 33.9204C4.12356 33.5304 4.71356 32.2504 5.46356 31.0304C6.18356 29.8204 7.07355 27.9504 7.36355 26.8604C7.69355 25.7804 8.64356 23.9404 9.49356 22.7604C10.3136 21.6104 11.0036 20.5304 11.0036 20.4304C11.0036 20.3004 10.6136 20.4604 10.1136 20.8204C9.59355 21.1804 8.54355 21.8704 7.75355 22.3604L6.31357 23.2504L6.47355 22.4004C6.77355 20.8904 6.21356 21.4804 5.16356 23.7404C3.82356 26.7604 3.45356 28.0704 3.16356 30.6604C2.93356 32.8204 2.90355 32.8604 2.47355 31.8704C1.62355 30.0004 1.85356 27.5404 3.16356 24.8204C5.19356 20.6504 5.62357 20.2304 8.28357 19.5404C9.56357 19.2404 11.2336 18.6504 12.0236 18.2904C12.7736 17.9004 13.4636 17.6704 13.5336 17.7304C13.6036 17.8004 13.2336 18.3504 12.7136 18.9404C10.8136 21.1404 8.09355 25.5004 7.86355 26.6504C7.60355 28.0904 8.32355 29.7704 9.50355 30.5504C10.4536 31.1704 11.0136 30.9804 11.0136 29.9604C11.0136 29.1104 14.1936 26.0604 14.9136 26.1904C15.6336 26.3504 15.4736 27.9904 14.6136 29.1404C14.1536 29.8004 14.0536 30.0604 14.3836 30.0604C14.9736 30.0604 17.8936 25.5704 17.8936 24.6804C17.8936 24.2204 17.5936 23.7904 17.1036 23.5604C16.2536 23.2004 15.5936 23.4904 13.8936 25.0704C13.4036 25.5004 12.6836 26.0504 12.2536 26.2504C11.8236 26.4504 11.1336 27.3304 10.6836 28.1904C10.2236 29.0404 9.76356 29.7304 9.63356 29.7304C9.24356 29.7304 8.38356 27.8604 8.38356 27.0404C8.38356 25.6304 10.3536 22.5504 13.9236 18.3204C15.5636 16.4204 16.2536 16.1604 16.1536 17.5004C16.0836 18.1904 16.2236 18.3904 16.6436 18.3204C16.9436 18.2904 17.2636 18.3904 17.3936 18.5804C17.6536 19.0404 19.7236 19.0104 20.6036 18.5504C21.6236 17.9904 22.4036 16.9404 22.8336 15.5304C23.0636 14.8704 23.3536 14.3204 23.5236 14.3204C23.9136 14.3204 23.8536 16.5504 23.4236 17.3004C23.2236 17.6604 23.1236 18.1204 23.2236 18.3504C23.4536 19.0404 25.1936 15.5904 25.2236 14.3804L25.2536 13.1704H23.7736H22.2936L22.3936 14.3804C22.4936 15.8204 22.0936 16.0204 21.5436 14.8104C21.0836 13.7904 20.3636 13.7604 19.0536 14.7404C18.4936 15.1704 17.8036 15.6304 17.5436 15.7604C16.8236 16.1204 19.7436 13.4604 21.8036 11.8904C23.3436 10.7104 23.6036 10.5804 23.7036 11.1004C23.8436 11.6704 23.9136 11.6704 24.7936 11.0404ZM20.5336 15.6304C20.5336 15.7904 20.4036 15.9604 20.2036 15.9604C20.0436 15.9604 19.8736 15.8004 19.8736 15.6304C19.8736 15.4304 20.0336 15.3004 20.2036 15.3004C20.4036 15.3104 20.5336 15.4404 20.5336 15.6304ZM20.7636 17.4104C20.1436 18.3304 18.9936 18.8204 18.5036 18.3304C18.3036 18.1304 18.5736 17.9704 19.1936 17.8404C19.7136 17.7104 20.3436 17.3204 20.5336 16.9504C20.7636 16.5604 20.9936 16.3304 21.0936 16.4304C21.1936 16.5204 21.0236 16.9504 20.7636 17.4104ZM19.5536 29.5404C19.5536 29.8004 17.3536 31.0504 16.8936 31.0504C16.6336 31.0504 17.0236 30.6904 17.7436 30.2304C18.9936 29.4804 19.5536 29.2504 19.5536 29.5404ZM28.1136 31.8404C28.6036 33.6804 27.5536 33.7104 26.4436 31.8704C25.5936 30.4904 25.5936 30.4304 26.8336 30.6904C27.6136 30.8504 27.9436 31.1504 28.1136 31.8404ZM26.2036 32.9204C27.6436 35.2204 27.7136 36.0704 26.3636 35.0204C25.4736 34.3304 23.4736 31.5104 23.4736 30.9904C23.4736 30.8304 23.8036 30.7304 24.1936 30.7904C24.6936 30.8504 25.3536 31.5804 26.2036 32.9204Z" fill="white"/>
<path d="M37.8535 33.5804C37.5935 33.9104 36.7035 35.1204 35.9535 36.3004C35.1635 37.4804 33.8835 39.2804 33.1035 40.3004C32.3135 41.3504 31.7935 42.2004 31.9235 42.2004C32.3135 42.2004 35.4035 39.6104 35.7935 38.9504C36.2235 38.2304 38.5535 33.0104 38.4535 33.0104C38.3735 33.0204 38.1135 33.2804 37.8535 33.5804Z" fill="white"/>
<path d="M31.0336 35.3104C30.5136 36.3304 25.6536 42.0304 24.3736 43.1804C23.8136 43.6704 23.4235 44.2004 23.5535 44.3304C24.3735 45.1504 29.1336 40.3904 30.7336 37.1104C31.2936 35.9304 31.6835 34.8804 31.5835 34.7804C31.4835 34.6904 31.2236 34.9204 31.0336 35.3104Z" fill="white"/>
<path d="M13.8135 20.1904C13.7135 20.2604 13.8135 20.5204 14.0135 20.7504C14.2435 21.0504 14.0435 21.6004 13.1935 22.7804C11.5835 24.9804 11.7135 25.1704 13.5835 23.4404C14.4335 22.6204 15.3535 21.8704 15.6135 21.7704C16.0435 21.6104 16.0435 21.5404 15.6435 21.2804C15.2535 20.9804 15.2135 20.8504 15.6135 20.3904C15.9735 19.9304 15.9135 19.9004 14.9935 19.9604C14.4035 20.0004 13.8735 20.1004 13.8135 20.1904Z" fill="white"/>
<path d="M12.4336 21.2804C11.9136 21.9004 10.9936 23.8404 11.1836 23.8404C11.4436 23.8404 13.0836 21.2204 12.9236 21.0504C12.8236 20.9504 12.5936 21.0504 12.4336 21.2804Z" fill="white"/>
<path d="M17.2535 22.0004C17.2535 22.0704 17.7136 22.5904 18.2336 23.1804C18.9236 23.9004 19.2135 24.0704 19.2135 23.7004C19.2135 23.1104 18.0935 21.8604 17.5735 21.8604C17.4135 21.8704 17.2535 21.9304 17.2535 22.0004Z" fill="white"/>
</svg>
