<svg width="47" height="47" viewBox="0 0 47 47" fill="none" xmlns="http://www.w3.org/2000/svg">
<path d="M19.15 0.239456C14.69 1.05946 10.49 3.25945 7.17999 6.49945C2.38999 11.2194 0 16.8295 0 23.2595C0 33.9495 7.25 43.2695 17.71 46.0595C20.47 46.8095 25.94 46.7795 28.86 46.0295C37.29 43.8695 44.21 36.9095 46.05 28.8795C46.77 25.5695 46.74 20.6495 45.92 17.4995C43.95 9.81945 38.11 3.68945 30.18 0.99945C27.41 0.0794504 22.17 -0.280544 19.15 0.239456ZM28.46 2.20946C29.94 2.56946 31.84 3.18946 32.66 3.61946L34.14 4.36946L31.88 4.95946C30.04 5.41946 29.35 5.47945 28.27 5.18945C27.29 4.88945 26.53 4.92945 25.35 5.18945C24.5 5.41945 21.64 5.61946 19.05 5.61946C14.49 5.64946 14.33 5.68945 14 6.40945C13.57 7.35945 13.8 7.55945 14.82 7.15945C15.34 6.95945 16.53 6.95946 17.9 7.12946C19.21 7.28945 20.72 7.28945 21.48 7.12946C22.99 6.79946 23.32 6.92946 22.33 7.45946C21.94 7.65946 20.49 7.78946 19.05 7.75946C16.89 7.68946 16.36 7.78946 15.51 8.37946C14.26 9.26946 13.77 9.29946 13.77 8.47946C13.77 7.22946 13.05 7.39946 11.44 9.06946C9.7 10.8695 8.95 11.3295 10.26 9.78946C11.15 8.73946 11.64 6.86945 11.31 5.71945C11.15 5.09945 11.21 5.09945 11.8 5.87946C12.62 6.95946 13.31 7.05945 13.6 6.13945C13.86 5.34945 13.57 4.82945 12.91 4.82945C11.34 4.82945 14.98 2.88946 18.16 2.03946C20.66 1.38946 25.28 1.45946 28.46 2.20946ZM30.99 6.79945C30.89 6.95945 30.37 7.12946 29.84 7.12946C28.59 7.12946 28.36 7.61945 29.18 8.43945C29.54 8.79945 29.84 9.51945 29.84 10.0795C29.84 13.4895 33.38 15.2294 35.84 13.0294C36.46 12.4694 37.09 12.0495 37.18 12.0495C38 12.0495 39.77 14.0195 40.69 15.9895L41.77 18.2495L42.66 17.7295C43.78 17.0695 44.6 17.3694 44.6 18.4194C44.6 18.8494 44.7 19.4695 44.83 19.7995C44.99 20.2295 44.93 20.3195 44.53 20.1895C43.97 19.9595 40.89 21.8594 40.33 22.7794C40.03 23.2994 39.84 23.2095 38.53 21.7295C37.68 20.8095 36.76 19.2995 36.37 18.2895C36.01 17.3095 35.65 16.2595 35.55 15.9895C35.39 15.5995 35.25 15.6295 34.86 16.2195C34.4 16.8795 34.27 16.9095 33.48 16.5195C33.02 16.2895 30.79 15.5995 28.53 14.9795L24.43 13.8595L26.4 13.6595C30.37 13.2695 30.5 13.0395 28.56 9.29945L27.28 6.83946L28.99 6.70946C29.91 6.63946 30.79 6.57945 30.93 6.54945C31.09 6.50945 31.09 6.60945 30.99 6.79945ZM35.81 7.02945C36.14 7.32945 36.4 7.71946 36.4 7.87946C36.4 8.07946 36.1 7.90945 35.74 7.51945C34.62 6.33945 33.18 6.72945 32.3 8.43945C31.74 9.51945 31.64 11.5895 32.14 11.8795C32.34 11.9795 32.47 12.2695 32.47 12.4695C32.44 13.4495 31.16 11.1894 31.16 10.1694C31.16 8.68945 31.62 7.86946 32.9 7.11946C34.17 6.34946 35.02 6.30945 35.81 7.02945ZM41.39 10.9995C42.6 12.7395 44.05 15.9895 43.62 15.9895C43.42 15.9895 42.11 14.8694 40.7 13.5294C38.34 11.2694 38.11 10.9394 37.94 9.52945C37.84 8.63945 37.64 7.65945 37.51 7.29945C37.19 6.37945 40.14 9.19945 41.39 10.9995ZM9.82999 7.61946C9.59999 7.87946 9.26999 8.00945 9.07999 7.87946C8.87999 7.77946 8.85 7.84946 8.98 8.03946C9.08 8.23946 8.88 8.55946 8.52 8.75946C7.73 9.18946 7.67 9.93945 8.42 10.3295C8.91 10.6295 8.88 10.7594 8.12 11.6694C7.5 12.3894 7.19999 13.2094 7.03999 14.5594C6.90999 15.6094 6.78 16.5895 6.71 16.7895C6.68 16.9495 7.01 17.5095 7.46 17.9995C8.21 18.8195 8.25 18.9195 7.68999 19.4395C7.2 19.9295 7.16999 20.5895 7.25999 24.3595C7.35999 28.4295 7.32999 28.6195 6.82999 27.8695L6.31 27.0795L4.67 28.9494L3.03 30.8195L2.46999 29.2095C1.61999 26.8195 1.41999 21.2694 2.07999 18.4194C2.82999 15.2694 4.51 11.9595 6.7 9.29945C8.08 7.62945 8.72999 7.09946 9.35999 7.09946C10.1 7.12946 10.16 7.19946 9.82999 7.61946ZM25.67 8.43945C26.06 8.46945 23.64 9.41945 23.21 9.41945C23.05 9.41945 22.95 9.21946 22.95 8.95946C22.95 8.46946 24.07 8.10945 24.85 8.29945C25.12 8.37945 25.48 8.43945 25.67 8.43945ZM34.1 9.25946C34.1 9.81946 34.62 9.94945 34.82 9.41945C34.98 8.95945 36.39 9.41945 36.39 9.93945C36.39 10.6595 35.5 10.8595 34.42 10.3995C33.5 10.0095 33.01 8.75946 33.76 8.75946C33.97 8.76946 34.1 8.99946 34.1 9.25946ZM19.67 9.22946C19.67 9.32946 19.54 9.48946 19.34 9.58946C19.18 9.68946 19.01 9.61946 19.01 9.45946C19.01 9.25946 19.17 9.09946 19.34 9.09946C19.54 9.09946 19.67 9.16946 19.67 9.22946ZM35.74 11.4895C35.74 11.5595 35.41 11.8795 35.02 12.2395L34.27 12.8595L34.89 12.1095C35.48 11.4295 35.74 11.2295 35.74 11.4895ZM9.00999 14.3495C8.90999 14.5095 8.68 14.6795 8.49 14.6795C8.33 14.6795 8.18999 14.5195 8.18999 14.3495C8.18999 14.1495 8.42 14.0195 8.71 14.0195C8.98 14.0195 9.10999 14.1495 9.00999 14.3495ZM23.94 17.0995C25.65 17.7895 27.88 18.8095 28.86 19.3295C30.7 20.3495 34.53 23.1995 34.34 23.3995C34.27 23.4695 33.65 23.2395 32.93 22.9095C32.21 22.5495 30.7 21.9595 29.55 21.5695C28.34 21.1795 27.09 20.4895 26.6 19.9595C26.08 19.3995 25.22 18.9394 24.44 18.8094C23.72 18.6794 22.31 18.2495 21.32 17.8895C20.01 17.3995 18.7 17.1994 16.43 17.1694C13.38 17.1394 13.38 17.1395 12.49 18.1495C12.03 18.7395 11.08 19.4295 10.39 19.7195C9.47 20.0795 9.14 20.4095 9.24 20.7995C9.34 21.2295 9.6 21.3595 10.16 21.2895C10.62 21.2195 12.03 21.1294 13.28 21.0594L15.58 20.9295L14.14 21.3895C12.11 22.0795 11.81 22.3695 12.17 23.5895C12.53 24.9295 13.22 25.6595 15.35 26.8695C16.47 27.4895 17.68 28.6095 18.66 29.8495C19.48 30.9295 20.63 32.0095 21.15 32.2395C22.76 32.9295 21.08 32.7995 18.92 32.0795C16.43 31.2295 14.59 29.8795 12.16 27.2595C10.26 25.1595 10.16 25.0995 10.16 26.0095C10.16 26.5295 10.46 27.6195 10.82 28.3995C11.57 30.0095 11.48 30.6595 10.72 29.1895C10.2 28.2095 8.52 21.9095 8.52 20.9895C8.52 20.6895 8.77999 20.1695 9.07999 19.8395C9.59999 19.2495 9.59999 19.1495 9.07999 18.2995C8.77999 17.7795 8.52 17.2795 8.52 17.1795C8.52 17.0495 10.68 16.4295 13.28 15.8395C13.64 15.7395 15.48 15.7095 17.38 15.7695C20.46 15.8595 21.15 15.9895 23.94 17.0995ZM37.84 28.3895C36.95 30.5895 36.5 33.0495 36.95 33.0495C37.15 33.0495 37.54 32.7495 37.87 32.3895C38.69 31.4995 39.15 31.5695 38.56 32.4595C38.3 32.8895 37.97 33.8695 37.84 34.6595L37.61 36.0695L35.94 35.8395C33.09 35.4795 27.28 35.6395 24.99 36.1694C21.71 36.9194 18.17 38.8295 15.94 40.9895C14.56 42.2995 13.84 42.7895 13.51 42.5995C13.15 42.3995 13.35 42.1695 14.23 41.6495C14.89 41.2595 15.41 40.7295 15.41 40.4695C15.41 39.3895 11.8 36.9895 10.1 36.9895C9.48 36.9895 9.44 36.9195 9.84 36.6595C10.1 36.4995 10.79 36.3295 11.35 36.3295C14.04 36.3295 15.09 35.6395 13.94 34.6895C13.64 34.4595 13.09 33.7994 12.69 33.2495L12 32.2295L13.12 33.1495C15.97 35.4095 16.92 36.0395 18.63 36.6595L20.47 37.3495L22.47 36.4995C23.68 35.9795 25.65 35.5195 27.65 35.2495C29.39 35.0494 30.83 34.7595 30.83 34.6595C30.83 34.2995 29.85 33.3795 29.49 33.3795C29.33 33.3795 29.19 33.2195 29.19 33.0195C29.19 32.7895 30.24 32.7195 32.21 32.7895L35.23 32.8895L36.12 30.4595C36.84 28.5595 38.12 26.4895 38.58 26.4895C38.6 26.4795 38.27 27.3395 37.84 28.3895ZM20.72 40.9795C18.56 43.9995 18.23 44.3295 17.28 43.9995L16.39 43.6994L17.28 42.5795C18.07 41.5595 21.31 39.1995 21.58 39.4295C21.64 39.5095 21.25 40.1895 20.72 40.9795ZM26.36 41.4695C26.46 42.1595 26.52 43.2395 26.52 43.8595C26.49 44.8395 26.42 44.7494 26.13 43.1994C25.61 40.7694 24.79 40.6095 22.82 42.6095C22.03 43.3995 21.34 44.2494 21.25 44.5094C21.16 44.7694 20.95 44.8995 20.79 44.7395C20.27 44.2495 24.69 40.2495 25.78 40.2495C25.97 40.2594 26.23 40.8195 26.36 41.4695ZM32.83 41.0495C32.53 41.4095 32.63 41.5395 33.35 41.7395C34.14 41.9395 34.17 41.9995 33.71 42.2595C33.32 42.4895 32.86 42.3895 32.07 41.8995C31.48 41.5395 30.53 41.2395 29.94 41.2395C28.92 41.2395 28.89 41.3094 28.76 42.7794L28.63 44.3494L28.66 42.7095L28.69 41.0695L30.66 40.8695C31.74 40.7695 32.76 40.6694 32.92 40.6395C33.08 40.6095 33.02 40.7795 32.83 41.0495Z" fill="white"/>
<path d="M35.81 13.7895C34.73 14.9095 34.53 15.3295 35.09 15.3295C35.48 15.3295 37.39 13.3895 37.39 12.9995C37.38 12.4495 36.86 12.7095 35.81 13.7895Z" fill="white"/>
<path d="M37.6499 13.9195C37.4199 14.2195 37.1899 15.4895 37.1299 16.7695C37.0299 18.7995 37.0999 19.2595 37.7899 20.2495C39.2999 22.4795 40.6799 21.8595 40.6799 18.8695C40.6799 17.4895 40.45 16.5095 39.86 15.3595C38.96 13.5895 38.2999 13.1695 37.6499 13.9195Z" fill="white"/>
<path d="M14.19 36.5495C13.6 36.8495 13.11 37.2095 13.11 37.3395C13.11 37.8295 15.54 39.2795 16.32 39.2795C17.11 39.2795 19.01 38.3295 19.01 37.9395C19.01 37.7095 15.93 35.9995 15.53 36.0395C15.38 36.0295 14.75 36.2895 14.19 36.5495Z" fill="white"/>
</svg>
