<svg width="48" height="48" viewBox="0 0 48 48" fill="none" xmlns="http://www.w3.org/2000/svg">
<path d="M19.8062 0.0815772C17.9662 0.441577 14.5862 1.69158 12.4262 2.77158C9.07616 4.51158 4.65616 9.00158 2.81616 12.5816C-0.853836 19.7316 -0.953833 28.1916 2.61617 34.9816C5.79617 41.0516 11.4762 45.2816 18.4862 46.8216C25.3062 48.3316 32.0362 46.8216 37.8362 42.4916C43.9362 37.9616 47.3462 31.0816 47.3462 23.2016C47.3462 18.9016 46.8262 16.7416 44.8162 12.6716C43.5662 10.0816 42.8462 9.09158 40.6462 6.93158C35.8262 2.14158 31.1962 0.171585 24.5462 0.0115852C22.3962 -0.0184148 20.2562 0.0115772 19.8062 0.0815772ZM29.9062 2.21158C32.8562 3.00158 34.7562 3.95157 37.4162 5.92157C39.3562 7.36157 42.1062 10.4116 42.1062 11.1016C42.1062 11.6616 41.3862 12.8416 40.3362 13.9216C39.4162 14.9016 39.3862 15.0416 39.8762 15.3316C40.3962 15.6316 40.3662 15.8216 39.3862 17.6916C38.8262 18.8116 38.2662 19.8516 38.2062 20.0216C38.1462 20.1916 38.6362 19.9216 39.2862 19.4016C39.9462 18.9116 40.4662 18.5816 40.4662 18.7116C40.4662 19.2016 37.7462 27.0416 37.0862 28.3916C36.4262 29.7416 36.2362 29.9016 35.1462 30.0016C32.5562 30.2316 31.6362 33.5116 33.6062 35.3516C36.0662 37.6516 38.7862 35.8716 40.2662 31.0216C40.7262 29.4816 41.1162 27.9716 41.1162 27.6716C41.1162 26.8216 41.6062 27.0116 42.1362 28.0016L42.5962 28.9216L42.6962 27.3116C42.7662 26.4616 42.6662 25.3116 42.4662 24.7816C42.0762 23.6316 43.1862 16.3816 43.8762 15.6916C44.2662 15.2616 44.3962 15.3316 44.8262 16.1516C45.4862 17.4616 46.0362 20.9716 46.0362 23.8916C46.0362 30.3216 42.4962 37.3016 37.1762 41.2716C34.2862 43.4316 28.7162 45.8016 26.5162 45.8016C26.0262 45.8016 26.0562 45.6716 26.6762 44.7216C27.9562 42.7816 28.6162 41.0516 28.8362 38.8816C28.9962 37.1716 28.9362 36.6216 28.5762 36.2616C28.3162 36.0316 28.1462 35.5416 28.2462 35.1816C28.3462 34.7916 28.1462 34.3616 27.6562 34.0016L26.9062 33.4116L27.6262 33.1816C28.3162 32.9816 28.3462 32.9216 27.7862 32.3316C27.2662 31.7416 27.2662 31.7116 28.0862 31.7116C29.0362 31.7116 29.2662 30.9216 28.6462 29.7416C28.4162 29.2816 28.4862 29.1216 28.9762 28.9916C29.4362 28.8616 29.6362 28.5316 29.6362 27.8416C29.6362 27.2816 29.5062 26.7216 29.3062 26.6316C28.7462 26.3016 28.9462 25.8116 29.6062 25.8116C30.3962 25.8116 30.7262 24.9916 30.0962 24.5016C29.4062 23.9116 29.5362 23.4216 30.3262 23.6116C31.1162 23.8116 31.5762 23.0216 30.9862 22.4316C30.4262 21.8716 30.5562 21.6116 31.3762 21.7416C31.9362 21.8416 32.4962 21.4116 33.7062 19.9716C35.6762 17.6716 35.8362 17.2816 34.8562 17.2816C33.7062 17.2816 31.6062 16.2316 31.6062 15.6716C31.6062 15.3716 31.9662 14.5516 32.4262 13.8316C33.3462 12.3216 33.4762 10.8516 32.7262 10.0316C31.7762 8.98157 32.5662 8.13158 34.9862 7.60158C36.0662 7.37158 36.0062 6.91157 34.8562 6.06157C33.9662 5.40157 31.1462 4.94158 29.8662 5.27158C28.1262 5.70158 26.4262 8.19158 25.5362 11.5716C25.2762 12.5916 24.9762 13.5116 24.9162 13.6016C24.8162 13.6716 24.2962 13.3716 23.7362 12.8816C21.3462 10.8816 19.8662 11.6016 19.5662 14.8516C19.4362 16.4216 19.5962 17.3416 20.4162 19.7416C21.1062 21.8416 21.5662 22.6916 21.9262 22.6616C22.5862 22.5916 22.5862 22.5916 21.4362 24.4016C20.4862 25.8816 20.1562 27.1216 20.7162 27.1216C20.8462 27.1216 21.5062 26.6016 22.1262 25.9416C24.2562 23.7116 24.2862 23.7416 24.1262 27.8816C24.0262 30.7716 24.1562 32.2116 24.6862 34.6716C25.3462 37.6516 25.6062 41.5916 25.1762 42.6716C25.0762 42.9716 24.7862 43.1916 24.5562 43.1916C23.9662 43.1916 22.0962 40.9916 21.7062 39.8416C21.5062 39.3216 21.0162 38.7616 20.5862 38.5916C19.9262 38.3316 19.7962 38.0716 19.7962 36.7916C19.7962 35.3816 19.7662 35.2816 19.0762 35.5116C17.5062 35.9716 17.4662 36.1716 17.5662 40.7916C17.6962 45.9416 17.8662 45.7816 14.0262 43.8716C9.59616 41.6416 5.69617 37.9316 3.79617 34.1316C2.02617 30.6516 1.20616 28.6916 1.20616 23.6716C1.20616 18.8516 1.63617 18.6516 2.68617 16.0916C7.17617 4.90157 18.3862 -0.808418 29.9062 2.21158ZM23.3762 15.1716C24.6562 16.6116 24.7162 16.8116 24.7162 18.7816C24.7162 19.9016 24.5862 20.9116 24.4562 21.0116C24.1262 21.2116 22.0262 19.0716 21.4762 18.0316C21.2762 17.6416 21.1162 16.4916 21.1162 15.5016C21.1162 13.1716 21.5762 13.1316 23.3762 15.1716ZM28.2662 15.8616C28.4662 16.4816 27.4462 16.3816 27.2162 15.7616C27.0862 15.4016 27.1862 15.3016 27.5762 15.3716C27.8662 15.4316 28.1662 15.6616 28.2662 15.8616ZM39.2562 31.2416C38.6962 33.0416 37.0262 35.3116 36.2762 35.3116C36.0762 35.3116 36.4762 34.5216 37.1262 33.5416C37.8162 32.5916 38.6362 31.1816 38.9662 30.4216C39.8062 28.5516 39.9762 28.9816 39.2562 31.2416Z" fill="white"/>
<path d="M37.3162 9.0316C37.4162 9.6216 37.5162 10.7716 37.5162 11.5616C37.5162 13.1316 38.0362 13.5016 38.3662 12.1816C38.6262 11.1016 38.2962 9.33161 37.6462 8.54161C37.1562 7.95161 37.1562 7.9816 37.3162 9.0316Z" fill="white"/>
<path d="M9.73618 11.0716C4.88618 13.4616 2.48618 22.1216 5.17618 27.4016C6.42618 29.7916 9.17618 32.5216 11.5062 33.6016C13.9362 34.6816 18.0962 34.8516 20.5562 33.9016C22.3962 33.1816 22.5562 32.6916 20.9462 32.6916C20.3262 32.6916 19.7962 32.6616 19.7962 32.5916C19.7962 32.5216 20.4562 31.7716 21.2762 30.9516C22.1962 29.9716 22.7562 29.1116 22.7562 28.5916C22.7562 27.8716 22.6562 27.8016 21.7062 28.0316C21.1162 28.1616 19.3762 28.2616 17.8362 28.2316C13.3762 28.2016 10.6162 26.5916 8.81618 22.9516C6.84618 18.8816 7.50618 14.4216 10.3262 13.0116C11.8362 12.2216 12.7162 12.1916 14.5562 12.8516C16.3262 13.4716 16.2662 13.4716 16.1262 12.6216C15.9962 11.5416 14.0562 10.3916 12.4562 10.3916C11.6962 10.3816 10.4862 10.6716 9.73618 11.0716Z" fill="white"/>
<path d="M37.3461 14.8716C37.2161 15.3616 37.0861 15.9516 37.0161 16.1816C36.7861 16.9016 37.4761 16.9716 38.1661 16.2816C38.9561 15.4916 38.9161 14.2116 38.0961 14.0516C37.7061 13.9916 37.4761 14.2216 37.3461 14.8716Z" fill="white"/>
<path d="M33.9361 26.6516C33.5461 27.1416 33.2461 27.9616 33.2461 28.4916V29.4116L34.5561 28.7516C35.2461 28.3916 35.9961 27.8016 36.1961 27.4716C37.0561 25.8316 35.1161 25.1416 33.9361 26.6516Z" fill="white"/>
</svg>
