<svg width="47" height="47" viewBox="0 0 47 47" fill="none" xmlns="http://www.w3.org/2000/svg">
<path d="M17.1465 0.578597C10.5165 2.3486 5.33649 6.6786 2.12649 13.0386C-0.853513 19.0386 -0.693512 27.5686 2.55649 33.7686C6.72649 41.7086 14.4665 46.4986 23.1265 46.4986C33.4265 46.4986 41.8265 40.4286 45.3665 30.4286C46.2165 28.0686 46.5165 22.0286 45.9565 18.8486C45.4965 15.9986 43.3665 11.3686 41.2965 8.5786C38.8365 5.2686 34.4365 2.2786 30.0465 0.898596C26.6565 -0.151404 20.4265 -0.311403 17.1465 0.578597ZM26.9165 1.5886C29.1765 1.9486 33.4765 3.81859 35.8665 5.45859C37.2065 6.37859 37.3765 6.6386 37.5765 8.1186C37.8065 9.7586 37.7765 9.78859 36.2665 11.4286C35.0165 12.7686 34.7565 13.2286 34.8565 14.0886C35.0165 15.6986 35.6065 15.5286 36.6965 13.5686C37.8765 11.4986 38.2365 11.2086 38.9265 11.7686C39.3865 12.1286 39.3565 12.2286 38.7265 12.4586C38.3665 12.5886 37.8065 13.2486 37.5465 13.8686C37.2865 14.5286 36.9265 14.9486 36.7565 14.8486C36.5965 14.7486 36.3665 14.9786 36.2665 15.3386C36.0065 16.1886 36.6965 17.0786 37.4765 16.8786C37.9065 16.7486 38.0365 16.8786 37.9665 17.3986C37.9365 17.8286 38.1265 18.1486 38.4565 18.2186C39.0765 18.3486 39.9965 16.7786 40.6865 14.4486C41.0765 13.1386 41.0465 12.9386 40.0265 10.9686C39.4365 9.8186 39.0065 8.6686 39.1065 8.4386C39.3065 7.8186 42.1265 11.8186 43.1765 14.2086C43.9965 16.0486 45.0465 20.2486 44.7865 20.5086C44.4565 20.8386 42.7165 19.1686 42.5565 18.3486C42.2965 17.1386 41.0165 15.5286 40.6165 15.9186C40.4165 16.1186 40.4165 16.4786 40.6465 16.8986C40.8465 17.2586 41.0065 17.8486 41.0065 18.1786C41.0065 18.8986 43.1365 21.1986 44.1865 21.5886C44.7465 21.7886 44.9365 22.1086 44.9365 22.9286C44.9365 23.7786 44.5465 24.3386 42.5465 26.2786C40.7765 27.9886 39.8565 29.1986 39.1365 30.7386C37.8565 33.4286 37.3365 35.2986 37.6965 35.9186C37.8565 36.1786 37.6665 37.0986 37.2065 38.2486C36.7765 39.2686 36.4165 40.2786 36.4165 40.4786C36.4165 40.9686 33.4965 42.9386 31.7265 43.6886L30.4765 44.2086L28.4065 42.1086L26.3365 40.0086L23.2565 40.2386C19.8465 40.5386 17.7165 41.1286 17.7165 41.8486C17.7165 42.1086 18.0765 42.7986 18.5365 43.3886C18.9965 43.9786 19.3565 44.5386 19.3565 44.5986C19.3565 45.0286 15.9165 43.9386 13.4565 42.7986C11.1565 41.7186 10.1765 40.9586 7.87649 38.6286C5.97649 36.7286 4.69649 35.0486 3.87649 33.4786L2.66649 31.1786L3.32649 28.7186C3.68649 27.4086 4.07649 25.9286 4.17649 25.4686L4.37649 24.6486L3.29649 25.6286L2.21649 26.6086L2.41649 25.2986C2.57649 24.3486 2.93649 23.7286 3.79649 22.9986C4.41649 22.4386 4.94649 21.8186 4.94649 21.5886C4.94649 21.3286 5.46649 20.3386 6.12649 19.3586C6.81649 18.3386 7.24649 17.3586 7.10649 17.0586C6.84649 16.3686 6.44649 16.6686 5.20649 18.4986C3.89649 20.4386 1.56649 23.1586 1.26649 23.1586C0.346487 23.1586 1.69649 16.7286 3.29649 13.4786C4.73649 10.4986 6.21649 8.5886 8.83649 6.3286C10.7065 4.7186 15.9165 1.8686 16.3165 2.2586C16.4165 2.3886 15.3965 3.00859 14.0165 3.63859C11.3565 4.88859 10.6365 5.5386 9.71649 7.7686C8.92649 9.7086 7.81649 11.9986 8.04649 11.1786C8.17649 10.8186 8.34649 10.0286 8.43649 9.4386C8.59649 8.5486 8.53649 8.38859 7.94649 8.38859C7.12649 8.38859 6.89649 8.9786 6.89649 11.0086C6.89649 12.6486 7.35649 13.4686 7.68649 12.4186C7.78649 12.0886 7.78649 12.4886 7.65649 13.3086C7.29649 16.1986 7.58649 18.0286 8.44649 18.3586C9.16649 18.6586 9.23649 18.4886 8.87649 17.2086C8.54649 16.0886 8.97649 12.5186 9.53649 11.8286C9.66649 11.6286 10.0265 10.6486 10.3265 9.6286C10.9465 7.3986 12.1665 5.88859 13.5765 5.49859C14.1665 5.33859 15.4165 4.6486 16.3965 3.9886C17.3465 3.3286 18.5265 2.8086 19.0165 2.8086C19.4765 2.8086 20.3265 2.4486 20.8565 1.9886C21.9665 1.1286 23.4765 1.0386 26.9165 1.5886ZM44.2965 29.0086C43.4465 32.0886 41.6765 35.5386 39.9965 37.4086L38.7165 38.7886L39.1765 37.4486C39.4365 36.6986 39.9265 35.5086 40.3265 34.7586C41.1465 33.1486 41.1765 33.0186 40.5265 33.2486C40.2665 33.3786 40.0365 33.2786 40.0365 33.0886C40.0365 31.7086 44.6565 24.9586 44.8865 26.0086C44.9565 26.2586 44.6965 27.5986 44.2965 29.0086Z" fill="white"/>
<path d="M20.8465 3.4286C20.4865 3.8886 19.7665 4.2786 19.2765 4.3186C18.7865 4.3886 18.0265 4.7486 17.6065 5.1386C17.2165 5.4986 16.5565 5.8286 16.1265 5.8286C15.7365 5.8286 15.0065 6.08861 14.5165 6.41861C14.0265 6.74861 13.3365 7.16861 12.9765 7.33861C12.3165 7.69861 11.8265 8.9486 12.0565 9.6386C12.1865 10.0286 14.7765 9.50861 14.7765 9.04861C14.7765 8.91861 14.9765 8.88861 15.2365 8.97861C15.4665 9.07861 15.7565 8.9086 15.8565 8.6486C15.9865 8.3486 16.2865 8.12861 16.5765 8.12861C16.8365 8.12861 17.0665 7.96861 17.0665 7.73861C17.0665 7.53861 17.1665 7.4786 17.2665 7.5786C17.3965 7.6786 17.7865 7.5786 18.1865 7.3186C18.5465 7.0586 19.0765 6.8286 19.3665 6.8286C19.8865 6.8286 21.8265 3.54861 21.6265 2.98861C21.5665 2.80861 21.2065 2.9986 20.8465 3.4286Z" fill="white"/>
<path d="M31.4065 5.78861C30.1265 6.04861 27.5665 7.65861 27.3365 8.31861C27.2665 8.54861 27.7265 9.00861 28.3565 9.39861C28.9465 9.78861 29.9665 10.7386 30.5565 11.5586C31.9365 13.3586 32.4965 13.6286 33.1465 12.7086C33.4065 12.3186 34.2665 11.3686 35.0465 10.6086C35.7965 9.81861 36.4565 8.86861 36.4865 8.47861C36.4865 8.08861 36.5165 7.6886 36.5565 7.5286C36.5865 7.3986 36.3565 6.96861 36.0965 6.57861C35.5065 5.75861 33.3465 5.39861 31.4065 5.78861Z" fill="white"/>
<path d="M21.5665 7.3686C20.9065 7.8886 19.3365 9.4986 18.0265 10.9786C16.7465 12.4886 15.4665 13.6986 15.2065 13.6986C14.9465 13.6986 15.1765 13.3386 15.7665 12.8486C16.3265 12.3586 16.6865 11.8686 16.5165 11.7286C16.2565 11.4686 13.1365 10.7486 12.3165 10.7486C12.0565 10.7486 11.3365 11.2086 10.6765 11.7686L9.52649 12.7886V15.8386C9.52649 18.7586 9.55649 18.9586 10.3765 19.5786C10.8665 19.9686 11.5265 20.2686 11.8165 20.2686C12.5065 20.2686 14.4365 18.1686 14.4365 17.4786C14.4365 16.7586 11.8465 16.8186 11.3165 17.5486C10.9565 18.0086 10.8865 17.8786 10.8865 16.5986C10.8565 15.5186 11.0165 14.9586 11.4765 14.5286C12.0965 13.9686 12.1965 13.9686 14.0365 14.6586C15.1165 15.0186 16.2665 15.3486 16.6565 15.3486C17.0165 15.3486 17.7765 15.6086 18.2965 15.9086C19.1465 16.3986 19.4765 16.3986 21.5765 16.0086C24.1665 15.5486 24.6565 15.6186 25.4165 16.7586C26.1365 17.8386 25.5165 19.2486 24.2965 19.3486C22.5565 19.4786 21.8365 19.2786 20.5865 18.4286C19.8965 17.9386 19.2465 17.6386 19.1065 17.7686C18.9765 17.8686 19.2365 18.9786 19.6265 20.2286C20.3465 22.4286 21.1365 23.3486 21.6265 22.5286C21.8265 22.2686 22.0565 22.2686 22.5465 22.5286C25.1365 23.9086 29.7265 20.1986 30.0565 16.4286C30.2565 14.5886 29.3965 13.0786 27.5665 11.8386C26.2265 10.9186 23.4965 10.7886 22.3465 11.6086C21.2665 12.3586 21.1965 12.0386 22.1465 10.6286C23.1265 9.2186 23.6265 7.6486 23.3565 6.9586C23.1765 6.2786 22.9165 6.3486 21.5665 7.3686Z" fill="white"/>
<path d="M12.8165 15.8286C12.8165 16.1286 13.1165 16.3186 13.6365 16.3186C14.5565 16.3186 14.7565 15.8286 13.9365 15.5286C13.1065 15.1986 12.8165 15.2986 12.8165 15.8286Z" fill="white"/>
<path d="M15.1064 17.0386C14.3164 18.3186 14.2864 19.0386 14.9464 19.5986C15.5664 20.1186 16.1564 19.6986 15.9264 18.9086C15.7964 18.5486 15.8564 18.2886 16.0564 18.2886C16.2564 18.2886 16.4164 17.9886 16.4164 17.6686C16.4164 17.3086 16.5764 16.9186 16.7464 16.8186C17.3064 16.4886 17.1064 15.9986 16.4164 15.9986C16.0264 15.9886 15.5064 16.4186 15.1064 17.0386Z" fill="white"/>
<path d="M22.5564 16.3486C21.7364 16.8086 21.8664 17.2986 22.8164 17.2986C23.3064 17.2986 23.6364 17.0986 23.6364 16.8386C23.6364 16.1586 23.2464 15.9886 22.5564 16.3486Z" fill="white"/>
<path d="M17.5064 16.7086C17.3064 16.9386 16.9164 17.9186 16.6164 18.8386C15.9964 20.7386 15.6665 20.9086 14.6465 19.9586C14.0565 19.3986 13.8564 19.3686 13.3664 19.7586C12.6164 20.2786 12.7465 21.7286 13.4965 21.7286C13.7965 21.7286 14.2865 21.9286 14.5765 22.1886C15.0365 22.5786 15.3264 22.5186 16.5764 21.8586C17.9864 21.1086 18.0565 21.1086 18.4765 21.6986C18.7365 22.0586 19.0965 22.2186 19.2965 22.0886C19.8565 21.7586 19.7865 21.3986 18.9065 20.3486C18.2165 19.5586 18.1565 19.1986 18.3465 18.2486C18.6065 17.0686 18.5065 16.3086 18.0465 16.3086C17.9265 16.3186 17.6664 16.5186 17.5064 16.7086Z" fill="white"/>
<path d="M24.0665 17.2086C23.9665 17.5386 23.5765 18.1586 23.1765 18.5886L22.4865 19.3386L23.3064 19.1086C24.4564 18.7786 24.9464 18.3186 24.9464 17.5986C24.9464 16.7786 24.3265 16.4786 24.0665 17.2086Z" fill="white"/>
<path d="M32.9865 19.1386C33.2165 21.5686 33.1865 21.6686 32.2665 22.6186C31.7765 23.1386 31.1165 23.7386 30.8265 23.8986C30.3665 24.1286 30.3065 23.9986 30.4365 22.7486C30.6665 20.8786 30.1365 20.6186 28.6965 21.8586C28.0765 22.4186 26.9865 23.1686 26.2665 23.5286C25.5465 23.8886 24.9565 24.2486 24.9565 24.3486C24.9565 24.4186 25.4165 24.7386 25.9765 25.0386C26.7265 25.3986 26.8965 25.6286 26.5965 25.8286C26.0365 26.1886 26.4665 26.8086 27.2865 26.8086C27.6765 26.8086 27.8465 26.9386 27.7165 27.1686C27.5565 27.4286 27.8465 27.4986 28.6965 27.3986C29.3565 27.3286 29.8765 27.3686 29.8765 27.4986C29.8765 27.8886 32.4965 27.6586 32.6365 27.2386C32.7365 27.0086 33.0265 26.9086 33.3265 27.0086C33.6265 27.1386 33.8865 26.9786 34.0165 26.6486C34.1465 26.3486 34.5765 25.9586 34.9965 25.7986C35.4265 25.6686 35.7865 25.2386 35.7865 24.9086C35.7865 24.5786 35.9165 24.1886 36.0865 24.0186C36.2465 23.8186 36.4765 22.8386 36.5765 21.8186C36.7365 19.9786 36.7365 19.9486 35.2665 18.3086C33.0865 15.8886 32.6865 16.0586 32.9865 19.1386Z" fill="white"/>
<path d="M39.3165 19.0086C39.3165 19.2386 39.2465 20.1586 39.2165 21.0786C39.0565 24.5586 38.1365 27.9386 36.5565 30.8486C35.5065 32.8186 35.8365 33.2786 37.1465 31.7386C38.4265 30.2286 39.6065 27.8986 39.8665 26.2986C39.9965 25.6086 40.3265 24.7886 40.5565 24.5286C40.9165 24.0986 40.9165 23.5786 40.5265 21.4086C40.2665 19.9686 40.0665 18.7486 40.0365 18.6886C40.0065 18.4186 39.3765 18.6786 39.3165 19.0086Z" fill="white"/>
<path d="M7.23645 21.2086C7.23645 22.3886 7.46645 24.6186 7.72645 26.1586C7.98645 27.6986 8.21645 29.6986 8.21645 30.6486C8.21645 32.1286 8.73645 33.3686 9.39645 33.3686C9.62645 33.3686 9.16645 28.1186 8.67645 25.3686C8.41645 23.9586 8.21645 22.3486 8.24645 21.7586C8.24645 20.8386 8.27645 20.8086 8.54645 21.4586C8.70645 21.8886 9.06645 22.2086 9.36645 22.2086C9.62645 22.2086 9.85645 22.4386 9.85645 22.6986C9.85645 23.1886 10.4764 23.4186 10.5464 22.9286C10.5464 22.7986 10.6164 22.2086 10.7064 21.5886C10.8064 20.6986 10.6764 20.3786 9.95645 19.8186C9.46645 19.4286 8.64645 19.0986 8.15645 19.0686C7.23645 19.0086 7.23645 19.0086 7.23645 21.2086Z" fill="white"/>
<path d="M11.1765 21.2686C11.1765 22.0586 11.9265 21.9586 12.0965 21.1386C12.1665 20.8086 11.9965 20.5786 11.7065 20.5786C11.3665 20.5786 11.1765 20.8786 11.1765 21.2686Z" fill="white"/>
<path d="M11.5965 23.5986C10.3165 25.1686 9.33653 31.4986 10.1165 33.1386C10.2765 33.5286 10.5465 34.1186 10.6365 34.4486C10.7365 34.7786 10.9965 34.9386 11.1965 34.8386C11.3965 34.7086 11.4565 34.4086 11.3565 34.1486C11.0965 33.4586 11.9765 33.2286 13.5565 33.5586C14.7365 33.8186 14.9665 33.9886 15.0965 34.8386L15.2965 35.8186L15.7565 35.0686C16.1465 34.5086 16.5465 34.3486 17.6565 34.3486C19.4265 34.3486 20.8365 33.7286 22.4465 32.2486C23.9565 30.8686 24.5465 31.0986 23.8565 32.7386C23.0065 34.7386 21.4265 36.5386 19.8865 37.2986C18.4765 37.9586 17.3265 38.0186 17.4265 37.3986C17.5865 36.4186 17.3565 36.2486 16.7365 36.8086C16.1465 37.3286 16.0765 37.3686 15.8865 36.8386C15.7565 36.4786 15.4965 36.3486 15.1365 36.5086C14.1865 36.8986 12.0165 36.6386 11.5565 36.0486C11.1965 35.5586 11.0965 35.5586 10.8365 35.9786C10.6765 36.2386 10.5065 36.7686 10.5065 37.0986C10.5065 37.7586 10.5065 37.7586 10.0465 37.0986C9.58653 36.4786 9.55653 36.4786 9.32653 37.0986C8.96653 38.0786 9.84653 39.2986 11.8165 40.4786C12.7965 41.0686 13.6565 41.4586 13.7165 41.3986C14.0165 41.1386 12.3765 39.4286 11.4565 39.0386C10.9365 38.8386 10.5065 38.5186 10.5065 38.3486C10.5065 37.9886 14.5365 38.4786 15.3965 38.9386C16.7765 39.6586 18.8065 39.3286 20.9365 38.0186C23.3265 36.5786 25.7265 34.6086 26.4465 33.5286C27.0365 32.6386 26.6765 31.6586 25.4265 30.6786C24.9065 30.2886 24.7365 29.8586 24.8665 29.2686C25.0265 28.2486 23.7865 26.2486 22.2465 25.0386C21.1665 24.2186 17.9865 23.1986 16.5065 23.1986C16.1165 23.1986 15.2565 23.6586 14.6365 24.1786L13.4865 25.1986L13.3865 24.2786C13.3065 23.2686 12.1865 22.8486 11.5965 23.5986ZM13.7365 31.7386C14.0665 32.2986 14.0665 32.3986 13.5365 32.3986C12.7465 32.3986 12.4865 32.1386 12.7165 31.5486C12.9465 30.9186 13.2365 30.9486 13.7365 31.7386ZM25.2765 33.3786C25.0765 33.7686 24.8165 33.9986 24.7165 33.9386C24.6465 33.8386 24.7465 33.4486 24.9465 33.0486C25.1465 32.6586 25.4065 32.4286 25.5065 32.4886C25.5765 32.5886 25.4765 32.9786 25.2765 33.3786Z" fill="white"/>
<path d="M11.8965 34.1586C11.9265 34.4886 12.1565 34.7186 12.3265 34.7186C12.8165 34.6886 12.7165 33.9286 12.2265 33.7686C11.9265 33.6686 11.7965 33.8286 11.8965 34.1586Z" fill="white"/>
<path d="M21.3765 34.8786C20.8165 35.5686 20.4565 36.1886 20.5265 36.2886C20.7265 36.4886 21.9665 35.3386 22.3965 34.5786C22.9765 33.4686 22.4265 33.6386 21.3765 34.8786Z" fill="white"/>
<path d="M16.4165 34.9186C16.4165 35.0786 16.5465 35.3786 16.7165 35.6086C16.9465 35.9686 17.0165 35.9686 17.1765 35.5786C17.2765 35.3186 17.2765 34.9886 17.1765 34.8886C16.8765 34.6186 16.4165 34.6486 16.4165 34.9186Z" fill="white"/>
<path d="M16.0964 39.9986C16.0964 40.4886 18.3564 40.9486 19.0464 40.5886C20.1264 39.9986 19.7964 39.7686 17.8964 39.7686C16.9164 39.7686 16.0964 39.8686 16.0964 39.9986Z" fill="white"/>
</svg>
