<svg width="48" height="48" viewBox="0 0 48 48" fill="none" xmlns="http://www.w3.org/2000/svg">
<path d="M17.7254 0.620067C13.5554 1.74007 10.3154 3.67008 6.99544 7.02008C2.33544 11.6401 0.335441 16.0701 0.0454406 22.4701C-0.184559 27.0901 0.43544 30.1801 2.43544 34.2401C4.23544 37.9801 6.37544 40.6401 9.29544 42.8701C15.2954 47.4001 22.2854 48.9101 29.3654 47.2001C37.9254 45.1701 45.0454 38.1101 46.9754 29.8201C47.7254 26.7001 47.6654 21.0301 46.8454 17.8801C44.9054 10.3001 38.7454 3.65007 31.2654 1.09007C27.7054 -0.159932 21.3754 -0.359933 17.7254 0.620067ZM29.3054 2.10008C30.3854 2.40008 32.1554 3.05007 33.2454 3.58007C35.3454 4.60007 38.9854 7.06007 38.9854 7.48007C38.9854 7.94007 34.5254 8.60007 31.7354 8.53007C29.4054 8.46007 28.4554 8.60008 26.3554 9.32008C23.3354 10.3701 22.2554 10.2701 20.0954 8.80007C18.9754 8.05007 18.0254 7.68008 16.5554 7.52008C15.4754 7.39008 13.9954 7.03007 13.2754 6.73007C11.5054 5.94007 10.9754 6.21008 11.2054 7.91008C11.3054 8.63008 11.5954 9.48007 11.8954 9.75007C12.3554 10.2101 12.3854 10.1401 12.1954 9.06007C12.0954 8.34007 12.1254 7.85008 12.3254 7.85008C12.6854 7.85008 14.3954 9.46008 14.3954 9.79008C14.3954 9.92008 13.9054 10.1501 13.3454 10.3101C12.3254 10.6101 12.2254 10.7701 11.9354 12.6101C11.7354 13.8601 11.3454 14.9101 10.9154 15.3701C10.0954 16.2201 9.76544 17.4701 10.0254 18.7801C10.1554 19.3401 10.0254 19.9001 9.72544 20.2601C8.60544 21.5101 8.51544 22.1001 9.16544 23.4401C9.49544 24.1601 9.75544 25.0501 9.78544 25.4401C9.78544 25.8001 10.0154 26.3901 10.2754 26.7501C10.7654 27.3701 10.7654 27.3701 11.3954 26.6201C12.0154 25.9001 12.0154 25.8701 11.3654 24.3601C10.7454 22.9801 10.7454 22.5901 11.0354 19.5701C11.3654 16.7201 11.4954 16.1601 12.2154 15.5001C12.6754 15.0701 13.1954 14.7501 13.3954 14.7501C13.5554 14.7501 13.7254 14.0601 13.7254 13.2401C13.7254 12.1601 13.8554 11.7601 14.1554 11.9001C15.7254 12.5601 15.6954 12.5601 15.8954 11.5101C16.3854 9.15008 17.2754 11.1801 17.0754 14.1701C16.9454 16.2701 16.6854 16.8601 16.1854 16.0701C15.7254 15.3501 14.7754 15.7401 14.5454 16.7601C14.3854 17.5501 14.1854 17.7401 13.6954 17.6101C12.7754 17.3501 12.2854 18.4601 12.7154 19.7401C13.1754 21.0801 13.1754 21.0801 12.4154 20.8901C11.4654 20.6601 11.2054 21.9701 11.9554 23.2501C12.6754 24.4601 13.7254 24.9601 16.0854 25.1501C18.4454 25.3801 19.4354 25.1201 19.8854 24.1301C20.1854 23.4401 20.1154 23.2401 19.2254 22.4201C18.1754 21.4001 17.2254 19.8601 17.5154 19.5701C17.6154 19.4701 18.2354 19.5701 18.8954 19.7301C19.9754 20.0301 23.2954 19.8601 24.4054 19.4301C25.2554 19.1001 24.8954 20.2801 23.8154 21.2001C21.2254 23.4601 21.1554 23.6901 22.3354 25.0701C22.9554 25.8201 23.4154 25.9901 25.2254 26.1201C27.0254 26.2801 27.6854 26.1501 29.6254 25.3701C30.9054 24.8801 32.7454 24.2201 33.7254 23.8901C36.0554 23.1701 36.3854 22.6401 35.3354 21.3601C34.9054 20.8001 34.2854 19.9801 33.9554 19.5201C33.4954 18.8301 33.0654 18.6701 31.9854 18.6301C30.9054 18.6301 30.7354 18.5601 31.2654 18.3301C31.6254 18.1701 32.4454 18.0301 33.0654 18.0301C33.6854 18.0001 34.7054 17.7001 35.3254 17.3101C35.9154 16.9501 36.4754 16.7201 36.5754 16.8201C36.6754 16.8901 36.4154 17.6701 36.0554 18.4901C35.2354 20.3601 35.2354 20.2001 36.0254 20.3901C36.5154 20.5201 36.6854 20.8501 36.6854 21.7301C36.6854 23.0401 36.8854 23.1401 37.8954 22.4201C38.5854 21.9601 38.6454 21.9601 39.1054 22.6801C40.2854 24.4801 40.3854 25.3401 39.4654 27.0101C39.0054 27.8601 38.6454 29.0101 38.6454 29.5001C38.6454 31.0401 38.0554 30.8801 37.3954 29.1101L36.7754 27.4401L35.8554 29.5401C35.3354 30.6901 34.8354 32.3901 34.7754 33.3801C34.6454 34.9901 34.6754 35.1201 35.2654 34.9201C35.8254 34.7601 35.8854 34.8501 35.7554 35.8401C35.6854 36.4601 35.7554 37.2201 35.9554 37.5501C36.2554 38.0701 36.2854 38.0401 36.4754 37.4201C36.6354 36.9301 36.9954 36.7001 37.5254 36.7001C38.0154 36.7001 38.8654 36.1401 39.8254 35.2201C41.1654 33.8801 41.2654 33.6801 40.8054 33.2201C40.0554 32.4701 40.1454 31.7101 41.4654 27.9101C42.4454 25.0201 42.6454 24.0701 42.6454 21.6801C42.6454 20.0101 42.4154 18.0701 42.0854 17.0201C41.3654 14.5601 41.1354 12.4301 41.5254 11.4401C41.8254 10.6201 41.8554 10.6501 42.8654 12.2601C45.1254 15.8001 46.3454 20.6601 46.0454 24.8901C45.8154 28.5601 45.1254 31.0201 43.5854 34.2401C41.2254 39.0001 36.9254 42.8701 31.6454 44.9301C29.2854 45.8501 28.4654 45.9801 24.9554 46.1401C18.5954 46.3701 14.2654 45.0201 9.70544 41.3501C7.14544 39.2801 6.98544 38.5901 8.75544 36.9201C9.54544 36.2001 10.3254 35.7401 10.5954 35.8401C11.3154 36.1001 11.4454 35.5401 10.9254 34.5301C10.6654 34.0101 10.4354 32.9201 10.4354 32.1001C10.4354 31.0201 10.3354 30.7601 10.1054 31.1201C9.94544 31.3801 9.77544 32.0101 9.77544 32.4601C9.77544 33.1201 9.57544 33.3801 8.95544 33.5401C8.52544 33.6401 7.90544 34.0301 7.57544 34.3601C7.24544 34.6901 6.42544 35.0501 5.73544 35.1801L4.48544 35.4101L3.53544 33.3401C2.05544 30.1901 1.56544 27.7601 1.56544 23.8901C1.56544 18.1801 3.23544 13.5601 6.94544 9.10008C9.56544 5.95008 12.6154 3.92007 17.0154 2.44007C19.0854 1.72007 20.0654 1.59007 23.3754 1.59007C25.8954 1.61007 28.0954 1.80008 29.3054 2.10008ZM40.2954 10.2001C40.2654 11.8401 38.8154 12.5901 37.5054 11.6401C36.9454 11.2501 36.9854 11.1501 38.1954 10.3301C39.7354 9.28007 40.2954 9.25007 40.2954 10.2001ZM31.1154 10.7601C31.1154 11.1201 28.9154 13.0901 28.4954 13.0901C27.7054 13.0901 28.5954 11.5801 29.7454 10.9901C30.7854 10.4001 31.1154 10.3701 31.1154 10.7601ZM34.3954 12.7301C34.3954 13.0601 34.6254 13.5201 34.8854 13.7501C35.3454 14.1401 35.2754 14.3101 34.3254 15.3201C33.3054 16.3701 33.1454 16.4401 31.6054 16.2701C30.5254 16.1701 29.6654 16.2701 29.1454 16.5701C27.8954 17.2301 27.7054 17.1301 28.3954 16.0801C29.4154 14.4401 32.6554 12.1801 34.0054 12.1101C34.1954 12.1001 34.3954 12.3701 34.3954 12.7301ZM21.5054 12.7601C22.1254 12.9901 22.9454 13.0201 23.8354 12.7901C24.9554 12.5601 25.2154 12.5901 25.2154 12.9501C25.2154 13.6101 22.9154 16.0701 22.5254 15.8401C22.0954 15.5801 20.2954 13.0501 20.2954 12.6901C20.2854 12.3701 20.3254 12.3701 21.5054 12.7601ZM38.9854 14.2001C38.9854 14.5601 38.3654 14.6901 38.1654 14.4001C38.0654 14.2401 38.1954 14.0701 38.4654 14.0701C38.7554 14.0701 38.9854 14.1401 38.9854 14.2001ZM32.3254 21.7801C31.8354 22.2401 31.1754 22.6001 30.8854 22.6001C30.2654 22.6001 30.4254 22.4001 31.6754 21.5801C33.0154 20.7301 33.3754 20.8601 32.3254 21.7801Z" fill="white"/>
<path d="M12.2156 27.0301C11.4956 28.1101 11.2656 31.7201 11.7256 34.2501C12.0856 36.1501 13.8555 40.3201 14.3155 40.3201C14.4455 40.3201 14.4756 39.0101 14.4456 37.4001C14.3456 35.2001 14.4755 33.8201 15.0055 31.8201C16.1556 27.4201 15.8955 26.2101 13.8255 26.2101C13.0355 26.2101 12.6156 26.4401 12.2156 27.0301Z" fill="white"/>
<path d="M29.9354 27.0901C29.4454 27.8401 29.2754 28.9601 29.0854 33.0901C28.9854 35.8801 28.7554 38.8001 28.6254 39.5501C28.4954 40.3701 28.5254 40.9601 28.7254 40.9601C29.1854 40.9601 31.3454 37.0601 32.1354 34.8601C33.0854 32.1001 33.3154 28.6001 32.6254 27.2501C31.9354 25.9101 30.7854 25.8501 29.9354 27.0901Z" fill="white"/>
<path d="M19.9554 27.7501C19.9554 28.2701 20.1554 29.0001 20.4154 29.3201C20.8454 29.9101 20.8754 29.9101 21.2354 29.1901C21.8254 28.1101 21.5654 27.0601 20.7154 26.9301C20.0954 26.8301 19.9554 26.9601 19.9554 27.7501Z" fill="white"/>
<path d="M23.5654 28.34C23.5654 30.08 24.2554 30.34 24.8754 28.83C25.3654 27.65 25.1054 26.86 24.2154 26.86C23.6654 26.86 23.5654 27.06 23.5654 28.34Z" fill="white"/>
<path d="M16.9054 27.4201C16.5454 27.7501 16.6454 29.7501 17.0354 29.9801C17.5254 30.3101 17.6954 30.0501 17.8854 28.5401C18.0154 27.4901 17.9554 27.2001 17.5854 27.2001C17.3354 27.1901 17.0054 27.2901 16.9054 27.4201Z" fill="white"/>
<path d="M26.0655 27.4901C25.8055 27.8801 26.1955 29.8201 26.5255 29.8201C26.8855 29.8201 27.1855 28.9701 27.1855 27.9801C27.1755 27.1901 26.4255 26.8601 26.0655 27.4901Z" fill="white"/>
<path d="M15.9254 34.5701C15.7954 34.8701 15.8554 35.7801 16.0554 36.6401C16.9454 40.3101 17.3954 40.4801 18.8454 37.7201L19.8654 35.7501L18.9754 35.0901C17.9954 34.4001 17.6654 34.4701 17.6654 35.4501C17.6654 36.3701 17.1454 36.1701 16.6154 35.0201C16.2254 34.2401 16.0554 34.1501 15.9254 34.5701Z" fill="white"/>
<path d="M39.8654 37.3901C39.1754 38.3101 38.6854 39.1601 38.7854 39.2601C39.0854 39.5201 41.6054 36.8301 41.6054 36.2401C41.6054 35.3601 41.1854 35.6501 39.8654 37.3901Z" fill="white"/>
<path d="M18.3854 40.11C18.4554 40.63 18.6854 41.13 18.9054 41.23C19.4654 41.39 19.3954 40.5701 18.8054 39.7901C18.3154 39.2001 18.3154 39.2 18.3854 40.11Z" fill="white"/>
<path d="M32.5855 40.2101C31.4655 41.7201 31.3754 41.9501 31.9254 41.9501C32.3854 41.9501 33.7255 40.1801 33.7255 39.5601C33.7355 39.0701 33.2455 39.3601 32.5855 40.2101Z" fill="white"/>
<path d="M35.0854 39.9201C34.6254 40.7701 34.6254 41.3001 35.0554 41.3001C35.4154 41.3001 35.8754 39.7301 35.6154 39.4601C35.5054 39.3601 35.2754 39.5601 35.0854 39.9201Z" fill="white"/>
<path d="M22.7855 40.3801C22.4555 41.6301 22.5555 41.9501 23.2755 41.9501C23.8355 41.9501 23.9355 41.7901 23.8355 40.9001C23.6955 39.6601 23.0755 39.3301 22.7855 40.3801Z" fill="white"/>
<path d="M25.2054 40.6101C25.2054 41.7901 25.6354 42.1501 26.2254 41.4301C26.5254 41.0701 26.5554 40.7701 26.3254 40.3801C25.7354 39.4601 25.2054 39.5601 25.2054 40.6101Z" fill="white"/>
<path d="M20.8155 40.7C20.5155 41.88 20.5855 42.27 21.1155 42.27C21.4455 42.27 21.6055 41.91 21.6055 41.12C21.5955 39.85 21.1455 39.59 20.8155 40.7Z" fill="white"/>
<path d="M17.6655 42.4801C17.6955 43.4301 20.2255 45.0701 22.1955 45.4301C22.8155 45.5601 23.9355 45.4601 24.6555 45.2301C25.9355 44.8701 27.5055 43.7501 27.5055 43.2301C27.5055 43.1301 25.6355 42.9301 23.3355 42.8401C21.0055 42.7401 18.8055 42.5801 18.4155 42.4501C17.9955 42.3101 17.6655 42.3401 17.6655 42.4801Z" fill="white"/>
</svg>
