<svg width="49" height="49" viewBox="0 0 49 49" fill="none" xmlns="http://www.w3.org/2000/svg">
<path d="M20.5 0.219295C14.79 1.0093 8.43 4.70929 5.02 9.23929C1.61 13.7693 0 18.5893 0 24.2293C0 28.4593 0.590003 31.1193 2.3 34.5893C5.19 40.5893 9.94 44.6893 16.53 46.9893C19.29 47.9393 19.84 48.0093 23.94 48.0393C28.96 48.0393 31.45 47.4493 35.55 45.3193C38.73 43.6493 43.06 39.4793 44.83 36.3693C50.5 26.3993 48.77 14.3593 40.6 6.64929C35.26 1.62929 27.72 -0.770705 20.5 0.219295ZM29.03 2.31929C34.84 3.75929 39.59 7.10929 42.77 12.0293C45.43 16.1593 46.31 19.3793 46.31 24.7193C46.28 27.1493 46.08 28.6593 45.59 30.3293C44.77 32.9193 43.03 36.3993 41.79 37.8693L40.97 38.8493L41.13 37.5993C41.29 36.5493 41.16 36.1593 40.38 35.1393L39.4 33.9293L39.89 31.6293C40.15 30.3493 40.55 28.6793 40.74 27.8593C41.76 23.5293 41.66 21.0393 40.35 19.2693C39.86 18.6093 39.53 17.4993 39.33 15.9893C39 13.2993 37.95 10.9993 36.64 10.0193C36.12 9.6593 34.93 8.53929 33.98 7.55929C32.5 6.07929 32.04 5.78929 30.77 5.65929C29.92 5.55929 28.51 5.65929 27.62 5.88929C26.67 6.08929 22.93 6.31929 18.76 6.34929C12.33 6.44929 11.45 6.50929 10.46 7.06929C9.15 7.81929 7.87 10.1193 7.87 11.7293C7.87 12.7493 7.94 12.8493 8.62 12.6493C9.01 12.5493 10.36 12.2893 11.64 12.1293C15.44 11.5693 18.36 12.4593 23.61 15.7393C26.37 17.4493 26.46 17.4793 29.68 17.7393C33.88 18.0393 34.63 18.3293 34.9 19.7393C35.65 23.3493 35.46 24.0693 32.64 28.0393C30.77 30.6993 29.98 31.3493 29.39 30.8593C29.03 30.5593 28.9 30.7293 28.73 31.8093C28.53 33.1493 28.27 33.3793 27.65 32.7593C27.09 32.1993 26.57 32.7293 26.57 33.8093C26.57 34.9293 26.24 35.0193 25.42 34.1093C24.67 33.2593 24.27 33.5493 24.27 34.9993V36.1793L23.45 35.4293C22.56 34.6093 22.4 34.7393 22.24 36.5493C22.11 37.7993 21.55 37.9593 21.06 36.9093C20.54 35.7293 20.01 35.8893 20.01 37.2393C20.01 38.4493 19.68 38.6793 19.03 37.8993C18.44 37.2093 18.11 37.2793 17.98 38.1293C17.82 39.3093 16.77 39.2793 16.37 38.0993C15.94 36.9493 15.45 36.7893 15.19 37.7393C15.09 38.0993 14.89 38.3993 14.73 38.3993C14.34 38.3993 14.37 38.1693 14.8 37.3493C15.16 36.6593 14.96 35.1193 14.47 35.1193C14.01 35.1193 13.06 37.9693 13.19 39.0893C13.42 41.5493 16.08 42.0693 20.67 40.5993C24.9 39.2193 25.2 39.1893 25.46 40.2393C25.72 41.3193 25.36 41.9793 24.02 42.8293C22.45 43.8493 22.81 44.6293 24.77 44.6293C25.85 44.6293 26.05 45.1493 25.26 45.9393C24.44 46.7593 23.16 46.7893 19.75 46.0693C4.37 42.9193 -3.14 25.5693 5.09 12.2893C9.98 4.4193 20.21 0.149294 29.03 2.31929ZM32.05 8.3793C32.8 9.1293 32.87 9.2993 32.41 9.6293C32.15 9.8293 31.92 10.3493 31.95 10.8093C31.98 11.4693 31.85 11.6293 31.23 11.5293C30.38 11.4593 27.06 9.1993 26.97 8.67929C26.9 8.24929 28.74 7.59929 30.12 7.55929C30.87 7.52929 31.46 7.7893 32.05 8.3793ZM11.16 9.00929C10.93 9.30929 10.67 9.43929 10.57 9.33929C10.47 9.26929 10.6 8.97929 10.83 8.67929C11.06 8.37929 11.32 8.24929 11.42 8.34929C11.52 8.41929 11.39 8.70929 11.16 9.00929ZM20.83 9.23929C21.58 9.56929 22.27 10.9493 21.91 11.3093C21.84 11.4093 21.19 10.8793 20.5 10.1593C19.19 8.80929 19.29 8.54929 20.83 9.23929ZM35.72 13.2993C36.41 14.1893 36.64 15.3993 36.11 15.3993C35.81 15.3993 34.11 13.0693 34.11 12.6793C34.12 12.1193 35.1 12.5193 35.72 13.2993ZM37.56 30.1293C37.43 30.5893 36.15 32.1993 34.64 33.7393C33.16 35.3093 31.46 37.1793 30.87 37.9393C30.28 38.7293 29.66 39.3493 29.49 39.3493C29.32 39.3493 29.19 38.4593 29.19 37.4093C29.19 35.5693 29.26 35.4093 30.44 34.3893C32.67 32.4193 36.15 28.3893 36.87 26.9093L37.56 25.4693L37.66 27.4093C37.72 28.4593 37.66 29.6693 37.56 30.1293ZM38.87 39.8993C38.64 41.1093 38.64 41.1093 37.2 40.5893C36.31 40.2593 36.05 40.3293 35.13 40.9493C33.75 41.9293 33.85 41.3793 35.29 39.9693C35.91 39.3793 36.93 38.1293 37.49 37.2493L38.54 35.6793L38.8 37.2493C38.97 38.1293 39 39.3493 38.87 39.8993Z" fill="white"/>
<path d="M10.96 13.9293C10.7 14.5493 11.52 16.7793 11.98 16.7493C12.18 16.7193 12.31 16.0293 12.31 15.1793C12.31 13.9293 12.18 13.6093 11.72 13.5093C11.42 13.4393 11.06 13.6293 10.96 13.9293Z" fill="white"/>
<path d="M13.26 13.8893C13.03 14.4793 13.72 16.7093 14.15 16.7093C14.51 16.7093 14.87 15.3693 14.71 14.3793C14.57 13.4993 13.55 13.1393 13.26 13.8893Z" fill="white"/>
<path d="M15.91 14.4193C15.55 14.9793 16.04 17.1093 16.5 16.9493C16.99 16.7893 17.02 14.3593 16.5 14.1893C16.31 14.1193 16.04 14.2193 15.91 14.4193Z" fill="white"/>
<path d="M8.76001 14.9393C8.37001 15.3293 8.50001 16.8793 8.99001 17.5593C9.45001 18.1493 9.48001 18.1493 9.84001 17.2293C10.04 16.7093 10.17 15.9493 10.1 15.5893C10.01 14.9093 9.19001 14.5193 8.76001 14.9393Z" fill="white"/>
<path d="M17.78 16.6193C17.85 17.4693 18.04 17.8693 18.37 17.8693C18.7 17.8693 18.89 17.4793 18.96 16.6193C19.06 15.5693 18.96 15.4093 18.37 15.4093C17.78 15.3993 17.68 15.5693 17.78 16.6193Z" fill="white"/>
<path d="M19.8501 16.3893C19.5901 16.7793 19.9801 18.9493 20.3701 19.1793C20.5001 19.2793 20.7601 19.0793 20.9601 18.7893C21.2901 18.2293 21.3201 18.2693 21.5201 18.9193C21.7801 19.8993 22.2401 19.8693 22.7001 18.8893C23.1601 17.8093 22.8301 16.9493 22.0101 17.2193C21.5801 17.3493 21.3501 17.2193 21.2201 16.7293C21.0601 16.0293 20.2101 15.8293 19.8501 16.3893Z" fill="white"/>
<path d="M10.5 18.4193C10.5 19.3093 10.93 20.0593 11.35 19.9293C11.74 19.8293 13.29 21.3093 13.55 22.0593C13.68 22.3893 13.98 22.6193 14.17 22.5493C14.4 22.4493 14.83 22.7093 15.12 23.0693C15.78 23.8893 15.97 23.7593 16.14 22.4493C16.21 21.7293 16.07 21.3993 15.48 21.1093C14.43 20.5893 13.12 19.3993 13.12 19.0093C13.12 18.8493 12.89 18.6793 12.63 18.6793C12.33 18.6793 12.04 18.4493 11.94 18.1893C11.62 17.3993 10.5 17.5693 10.5 18.4193Z" fill="white"/>
<path d="M23.85 18.2593C23.52 18.5893 23.59 19.9293 23.92 20.1593C24.35 20.3893 25.04 19.0793 24.81 18.4893C24.6 17.9893 24.21 17.8993 23.85 18.2593Z" fill="white"/>
<path d="M25.39 19.4993C25.09 20.2493 25.85 20.9793 26.24 20.3193C26.4 20.0593 26.5 19.6993 26.47 19.5293C26.28 18.9793 25.59 18.9493 25.39 19.4993Z" fill="white"/>
<path d="M31.62 21.4693C31.32 22.1593 31.72 25.2693 32.11 25.6693C32.57 26.1293 33.42 25.6993 33.85 24.7493C34.15 24.0593 34.11 23.6993 33.69 22.7793C33.03 21.4093 31.92 20.6793 31.62 21.4693Z" fill="white"/>
<path d="M16.37 23.4993C16.14 24.0893 16.17 24.4793 16.4 24.7093C16.86 25.1693 17.38 24.4093 17.38 23.3293C17.39 22.3593 16.8 22.4193 16.37 23.4993Z" fill="white"/>
<path d="M18.04 24.4193C18.04 24.9393 18.24 25.2393 18.53 25.2393C18.83 25.2393 19.02 24.9393 19.02 24.4193C19.02 23.8993 18.82 23.5993 18.53 23.5993C18.24 23.5993 18.04 23.8993 18.04 24.4193Z" fill="white"/>
<path d="M25.6501 26.7493C25.0601 27.1393 24.7601 27.1793 24.5001 26.9093C23.9401 26.3493 22.7901 26.4793 21.8101 27.2693C20.9601 27.9293 17.4801 34.6493 17.8101 34.9793C18.2401 35.4093 19.2901 34.2893 21.0601 31.5993C22.1401 29.8893 23.1901 28.5193 23.3601 28.5193C23.6901 28.5193 23.6601 28.5493 22.2401 30.7793C20.4701 33.6293 21.3501 33.4993 24.4701 30.4793C26.2701 28.7393 27.0601 28.1793 27.7501 28.1793C29.1601 28.1793 29.7801 27.6893 29.3201 26.9693C28.8401 26.1593 26.6401 26.0293 25.6501 26.7493Z" fill="white"/>
<path d="M16.6 27.7393C16.24 28.6893 16.37 29.8393 16.86 29.8393C17.55 29.8393 17.75 29.3793 17.52 28.2293C17.29 27.1093 16.93 26.9193 16.6 27.7393Z" fill="white"/>
<path d="M15.42 31.7993C15.42 32.3193 15.29 32.7793 15.09 32.7793C14.93 32.7793 14.76 33.2093 14.76 33.7293C14.76 34.7493 15.19 35.2693 15.74 34.9093C15.94 34.8093 15.94 34.4193 15.74 33.9293C15.51 33.2693 15.54 33.1093 16.07 32.9493C16.82 32.7193 16.89 32.3593 16.4 31.4393C15.88 30.5193 15.42 30.6893 15.42 31.7993Z" fill="white"/>
</svg>
