<svg width="48" height="48" viewBox="0 0 48 48" fill="none" xmlns="http://www.w3.org/2000/svg">
<path d="M18.474 0.374994C11.094 2.08499 5.65398 6.44499 2.23398 13.465C0.433983 17.175 -0.156029 20.155 0.0339709 24.615C0.333971 31.015 2.59397 35.995 7.31397 40.715C9.54397 42.945 10.524 43.635 13.414 45.045C17.774 47.175 21.184 47.935 25.254 47.635C37.814 46.685 46.864 37.635 47.424 25.465C47.984 14.015 40.894 4.07499 29.874 0.794992C26.994 -0.0450079 21.224 -0.275006 18.474 0.374994ZM29.264 2.38499C35.034 3.86499 40.904 8.64499 43.564 13.995C47.634 22.265 46.284 32.325 40.254 38.755C38.584 40.555 38.184 40.785 36.054 41.345C34.254 41.835 33.134 41.905 31.204 41.735C26.314 41.305 26.714 41.245 26.614 42.485C26.544 43.235 26.714 43.895 27.204 44.555C27.594 45.075 27.864 45.605 27.764 45.675C27.464 45.975 21.074 45.875 19.594 45.515C9.98398 43.285 3.16398 35.975 1.91398 26.525C0.963976 19.345 3.52397 12.255 8.83397 7.30499C11.984 4.41499 15.554 2.71499 20.644 1.72499C22.074 1.46499 27.194 1.82499 29.264 2.38499Z" fill="white"/>
<path d="M23.484 3.49499C22.434 3.88499 21.254 4.08499 20.894 3.95499C19.554 3.52499 17.944 3.75499 17.254 4.44499C16.464 5.23499 16.694 5.65499 17.614 5.16499C18.564 4.67499 19.844 4.70499 20.964 5.29499C22.014 5.85499 22.144 6.24499 21.624 7.55499C21.394 8.14499 21.464 8.76499 21.784 9.75499C22.044 10.505 22.274 11.365 22.274 11.655C22.274 12.215 20.634 14.315 20.204 14.315C20.074 14.315 19.974 13.625 19.974 12.745C19.974 11.665 19.714 10.745 19.024 9.56499C17.974 7.72499 15.024 4.80499 14.234 4.80499C13.614 4.80499 13.614 4.93499 14.204 6.08499C14.694 7.00499 15.184 9.52499 15.544 13.135C15.704 14.615 15.974 15.235 16.594 15.825L17.414 16.575L16.594 17.555C15.414 18.965 14.954 20.675 15.154 22.805C15.314 24.605 15.314 24.645 14.854 23.555C14.594 22.965 14.264 21.715 14.134 20.795C14.004 19.875 13.744 19.055 13.514 18.995C12.494 18.635 11.124 22.765 11.124 26.145C11.124 28.605 11.944 29.725 13.784 29.725C15.684 29.725 15.324 30.315 13.354 30.445L11.614 30.545L11.684 32.515C11.784 35.005 12.474 37.405 13.124 37.535C13.424 37.565 14.534 36.945 15.654 36.125C17.094 35.075 18.014 34.645 18.774 34.645C19.394 34.645 20.974 34.285 22.284 33.825C23.954 33.265 25.404 33.005 27.004 33.005C28.344 33.005 29.894 32.775 30.714 32.485C31.864 32.025 32.324 31.995 32.974 32.325C33.434 32.525 34.454 32.685 35.274 32.685C36.094 32.685 37.304 32.985 38.034 33.345C39.574 34.135 40.694 34.165 41.974 33.505C42.824 33.075 42.954 32.815 42.954 31.665C42.954 30.945 43.314 29.435 43.744 28.315C44.894 25.425 45.024 24.375 44.594 21.065C44.204 17.815 43.544 15.945 42.854 15.945C42.554 15.945 42.294 15.455 42.134 14.695C41.744 12.495 40.424 10.105 38.694 8.46499C37.084 6.92499 33.614 4.82499 33.254 5.18499C33.184 5.28499 33.454 6.13499 33.914 7.05499C34.344 8.00499 34.804 8.62499 34.934 8.43499C35.494 7.48499 37.364 8.69499 38.344 10.595C38.934 11.715 38.804 13.255 38.114 13.445C37.264 13.745 35.394 15.515 33.854 17.575C32.604 19.215 32.374 19.375 30.544 19.735C27.294 20.425 24.904 21.935 23.234 24.395C22.804 25.015 22.484 25.145 21.334 25.055L19.924 24.955L20.814 23.875C21.304 23.315 21.564 22.825 21.374 22.825C20.654 22.825 21.044 22.305 22.324 21.575C23.044 21.185 24.424 20.195 25.374 19.415C27.044 18.035 27.174 18.005 28.034 18.465C28.524 18.725 29.154 18.855 29.444 18.765C29.834 18.605 29.774 18.405 29.144 17.555C26.424 13.945 26.194 13.525 26.424 12.435C26.524 11.815 26.884 10.865 27.244 10.275C27.574 9.68499 27.964 8.63499 28.064 7.91499C28.194 7.19499 28.494 6.27499 28.754 5.88499C29.414 4.83499 29.314 4.24499 28.494 3.68499C27.134 2.83499 25.524 2.80499 23.484 3.49499ZM23.254 14.315C22.564 15.295 21.284 16.215 21.284 15.725C21.284 15.395 23.314 13.335 23.674 13.335C23.814 13.335 23.654 13.795 23.254 14.315ZM20.204 17.925C19.744 18.285 18.924 19.265 18.364 20.125L17.344 21.635V20.125C17.344 18.715 17.444 18.515 18.424 17.925C18.984 17.565 19.834 17.265 20.264 17.265H21.054L20.204 17.925ZM41.884 19.465C41.454 21.035 40.834 22.285 40.174 22.815C39.424 23.435 39.554 24.615 40.474 25.735C40.934 26.295 41.294 26.815 41.294 26.915C41.294 27.015 40.704 27.115 39.984 27.115C39.264 27.115 38.674 26.985 38.674 26.815C38.674 26.645 38.154 25.835 37.524 24.975C36.444 23.565 36.374 23.435 36.864 22.745C37.124 22.355 37.354 21.765 37.354 21.465C37.354 21.075 37.914 20.615 39.094 20.085C40.014 19.695 40.994 19.105 41.254 18.805C41.984 17.895 42.254 18.195 41.884 19.465ZM28.804 22.715C27.724 23.895 25.524 25.015 26.044 24.125C26.374 23.635 28.864 21.865 29.254 21.865C29.454 21.865 29.264 22.255 28.804 22.715ZM33.424 24.715C33.424 26.155 33.394 26.225 32.904 25.735C32.414 25.275 32.414 25.045 32.774 24.195C33.004 23.635 33.234 23.175 33.294 23.175C33.364 23.175 33.424 23.865 33.424 24.715ZM29.984 24.785C29.884 24.985 29.524 25.145 29.234 25.145C28.804 25.145 28.804 25.075 29.364 24.685C30.044 24.195 30.344 24.225 29.984 24.785ZM18.504 29.405C18.404 29.565 18.144 29.735 17.984 29.735C17.784 29.735 17.754 29.575 17.854 29.405C17.954 29.205 18.214 29.075 18.374 29.075C18.564 29.075 18.604 29.215 18.504 29.405Z" fill="white"/>
<path d="M31.324 5.525C31.224 5.955 31.094 7.525 31.024 9.065C30.924 11.225 30.694 12.315 30.004 13.885C28.884 16.375 29.024 17.425 30.564 18.085C31.814 18.605 32.504 18.285 33.684 16.605C34.604 15.225 34.634 13.325 33.784 9.945C33.194 7.685 31.984 4.795 31.624 4.795C31.524 4.805 31.394 5.135 31.324 5.525Z" fill="white"/>
<path d="M11.414 8.05499C10.924 8.57499 10.294 9.69499 10.074 10.515C9.774 11.665 9.41401 12.185 8.59401 12.675C7.34401 13.395 6.20399 15.105 6.20399 16.285C6.17399 16.745 5.974 17.465 5.714 17.925C5.054 19.075 5.12401 20.945 5.84401 22.585C6.76401 24.685 7.55399 27.115 7.81399 28.585C8.07399 29.995 8.404 30.715 8.764 30.715C9.124 30.715 8.994 27.365 8.604 26.455C8.014 25.015 8.17399 19.435 8.86399 17.665C9.19399 16.815 9.454 16.285 9.484 16.515C9.484 17.135 11.154 18.905 11.714 18.905C12.014 18.905 12.794 18.515 13.484 18.055C14.664 17.235 14.734 17.105 14.734 15.395C14.734 13.455 14.244 12.275 12.964 11.065C11.944 10.115 11.914 9.55499 12.764 8.14499C13.324 7.25499 13.324 7.09499 12.894 7.09499C12.594 7.10499 11.944 7.53499 11.414 8.05499Z" fill="white"/>
<path d="M32.644 35.345C30.314 36.235 26.414 36.295 24.644 35.505L23.234 34.885L22.024 36.035C20.454 37.575 18.354 38.955 17.994 38.725C17.834 38.625 17.794 38.395 17.894 38.205C18.024 38.005 17.924 37.905 17.664 38.005C17.404 38.105 17.204 38.525 17.204 38.955C17.204 39.745 17.274 39.745 19.894 39.705C22.054 39.675 22.914 39.505 24.324 38.815C25.604 38.195 26.854 37.895 29.014 37.735C32.194 37.505 33.504 36.985 34.094 35.705C34.294 35.275 34.394 34.855 34.354 34.815C34.284 34.755 33.524 34.985 32.644 35.345Z" fill="white"/>
<path d="M37.724 35.605C37.134 36.125 36.014 36.725 35.234 36.915C33.294 37.405 30.804 38.485 30.804 38.885C30.804 39.045 31.294 39.505 31.924 39.865C33.234 40.685 35.274 40.755 36.974 40.065C39.074 39.175 41.994 35.865 41.464 34.985C41.034 34.295 38.874 34.655 37.724 35.605Z" fill="white"/>
<path d="M10.074 35.545C9.38401 36.295 8.99401 37.805 9.41401 38.075C9.57401 38.175 10.134 37.945 10.594 37.585C11.254 37.065 11.414 36.695 11.254 36.175C10.924 35.085 10.634 34.915 10.074 35.545Z" fill="white"/>
</svg>
