<svg width="47" height="47" viewBox="0 0 47 47" fill="none" xmlns="http://www.w3.org/2000/svg">
<path d="M18.8892 0.457918C14.4592 1.34792 10.7192 3.30791 7.37921 6.42791C1.66921 11.8379 -0.980789 19.5479 0.329211 27.0579C1.93921 36.2779 7.67921 42.8979 16.7992 45.9479C19.7192 46.9279 26.0792 46.9979 29.3592 46.1079C37.4292 43.9079 43.8192 37.5479 46.0192 29.4479C46.8092 26.5979 46.7692 20.2979 45.9892 17.3479C45.0692 13.9979 43.0092 10.3979 40.4792 7.66792C34.7392 1.53792 26.7992 -1.15208 18.8892 0.457918ZM29.3892 2.55792C34.7992 4.26792 40.1192 8.65792 42.5092 13.3779C43.2292 14.8179 43.8192 16.0979 43.8192 16.1979C43.8192 16.2679 43.2992 16.0979 42.6692 15.8079C41.9792 15.4779 41.5492 15.0879 41.6492 14.8279C41.7792 14.5279 41.5192 14.3979 40.8292 14.3979C40.2692 14.3979 39.4492 14.0979 38.9892 13.7379C38.5292 13.3779 37.8092 13.0779 37.4192 13.0779C36.9892 13.0779 36.5992 12.8779 36.4992 12.6179C36.3992 12.3879 35.9092 12.0979 35.3792 11.9979C34.8892 11.8679 34.0992 11.6679 33.6692 11.5679C32.9792 11.3679 32.9492 11.4079 33.2792 12.0579C33.6092 12.6179 33.5792 12.7479 33.1492 12.7479C32.7192 12.7479 32.6592 13.0479 32.8492 14.4579C32.9792 15.4079 33.3392 16.6179 33.6992 17.1779C34.1592 17.9279 34.2892 18.8179 34.2892 21.1479C34.2892 23.6779 34.1592 24.3579 33.4392 25.8079C32.9792 26.7279 32.1292 27.8779 31.5692 28.3379C30.9792 28.7979 30.2892 29.3879 29.9992 29.6479C29.4092 30.2079 27.5392 30.3079 27.2392 29.8079C27.1392 29.6079 27.3092 29.4779 27.5992 29.4779C27.8992 29.4779 28.7192 28.8879 29.4392 28.1379C30.1292 27.4179 30.8492 26.9279 31.0092 27.0179C31.1692 27.1179 31.4992 26.5279 31.6992 25.7079C31.8992 24.8879 32.1892 24.2279 32.3192 24.2279C32.7492 24.2279 33.0092 23.1779 33.1692 20.7479C33.2992 18.5479 33.2392 18.2579 32.1492 16.1879C30.8392 13.6279 30.8392 13.6979 31.4592 13.9279C32.1492 14.1879 32.7692 11.6979 32.5392 9.52792C32.3092 7.52792 30.5992 3.55792 29.9192 3.55792C29.6592 3.55792 29.2992 3.91792 29.0992 4.37792C28.8992 4.80792 27.4592 6.01791 25.9492 7.03791C23.7192 8.51791 22.9992 8.83791 22.3092 8.67791C21.8192 8.54791 21.0992 8.67791 20.4692 8.97791C19.7192 9.40792 19.3492 9.43792 19.0292 9.13792C18.5092 8.67792 18.2392 8.80792 16.2092 10.5179C15.3592 11.2079 14.5392 11.7679 14.3692 11.7679C14.1992 11.7679 13.6792 12.1579 13.2192 12.6579L12.3992 13.5779L13.1892 15.3179L13.9392 17.0879L15.2792 15.9079C15.9992 15.2479 16.7192 14.7879 16.8492 14.8879C17.0092 14.9579 17.7692 14.8179 18.5192 14.5579C20.2592 13.9379 20.8192 13.9379 20.8192 14.5279C20.8192 14.9579 20.9792 14.9579 21.9992 14.5279C23.5092 13.9079 26.3592 14.1979 27.7692 15.1879C30.9492 17.3479 31.1492 20.8579 28.1992 23.1279C27.2192 23.8479 26.8892 23.9479 26.0392 23.7179C24.6992 23.3279 24.8292 22.8679 26.3992 22.3379C27.4792 21.9779 27.7792 21.6779 28.0692 20.6679C28.3692 19.6179 28.3692 19.2279 27.9392 18.4679C27.6392 17.9479 27.2492 17.1279 27.0492 16.6279C26.5892 15.5479 25.1092 14.9179 23.6392 15.1479C23.0192 15.2479 21.7392 15.8679 20.7492 16.4879C19.7992 17.1479 18.8492 17.6679 18.6192 17.6679C18.3892 17.6679 18.1892 17.8979 18.1892 18.1579C18.1892 18.8179 18.9392 18.7779 20.4892 17.9979C22.4592 16.9779 25.4092 17.2079 25.4092 18.3879C25.4092 18.7179 25.2792 18.9079 25.0792 18.8179C24.9192 18.7179 24.1592 18.9479 23.4392 19.3079C22.2592 19.8979 21.9592 19.9279 20.9792 19.6079C20.3592 19.3779 19.7692 19.2779 19.6392 19.4079C19.3092 19.7379 20.3892 21.2479 21.4092 21.8679C22.1592 22.3279 22.2992 22.5879 22.1292 23.3779L21.9692 24.3279L21.5092 23.4779C21.1792 22.8579 20.7892 22.5879 20.1292 22.5879C19.4092 22.5879 19.2792 22.4579 19.4092 21.9679C19.5092 21.5379 19.2792 21.0179 18.7192 20.4879C17.8292 19.5679 17.2092 19.4379 16.1592 19.9979C15.2092 20.4879 13.3992 21.0179 13.7992 20.6579C13.9592 20.4979 14.6492 20.1979 15.3392 19.9679C16.0892 19.7379 16.7192 19.2779 16.8792 18.8879C17.0092 18.4979 17.6692 17.6379 18.3192 17.0479C19.5292 15.8679 19.8292 15.0479 19.0692 15.0479C18.1792 15.0479 15.0692 17.1779 14.9692 17.8679C14.8692 18.4579 14.5792 18.6179 13.1992 18.7879C12.2792 18.9179 11.2292 19.1779 10.8992 19.3479C10.4692 19.5779 10.1492 19.5779 9.87921 19.3779C9.41921 18.9879 8.3392 19.6379 8.3392 20.2679C8.3392 20.4679 8.23921 20.6279 8.07921 20.6279C7.94921 20.6279 7.05921 21.3179 6.10921 22.1379C4.79921 23.2879 4.39922 23.8479 4.39922 24.5679C4.39922 25.8479 4.69922 26.5379 5.28922 26.5379C5.61922 26.5379 5.71921 26.7379 5.58921 27.0579C5.48921 27.3579 5.81921 28.1779 6.40921 29.0279C7.48921 30.5979 7.84921 30.8679 7.58921 29.7779C7.45921 29.3179 7.51922 29.1579 7.84922 29.2579C8.07922 29.3579 8.43921 29.2579 8.63921 29.0579C8.89921 28.7979 8.99921 28.7979 8.99921 29.1279C8.99921 29.3879 9.22921 29.4579 9.68921 29.3279C10.1792 29.1679 10.4092 29.2579 10.5392 29.7879C10.6392 30.1779 10.8392 30.4779 10.9992 30.4779C11.5192 30.4779 11.9192 29.0379 11.5592 28.5779C11.2992 28.3179 11.3592 28.1879 11.7192 28.1879C12.0192 28.1879 12.8992 27.6679 13.7192 27.0379C14.5392 26.4179 15.2292 26.0179 15.2292 26.1879C15.2292 26.3579 15.0292 26.5479 14.8392 26.6179C14.5792 26.7179 14.7092 26.9179 15.1692 27.1779C15.7592 27.5079 15.9192 27.4779 16.0892 27.0779C16.1892 26.8179 16.4792 26.6879 16.7492 26.7779C17.0092 26.8779 17.4392 26.7079 17.6692 26.3879C17.9692 25.9579 18.1592 25.8979 18.3292 26.1879C18.6592 26.7079 19.1792 26.3179 19.1792 25.5279C19.1792 25.0679 19.4092 24.9079 20.1592 24.9079C21.0792 24.9079 21.1392 25.0079 21.1392 26.0579C21.1392 27.2379 20.1592 29.5979 19.4692 30.0279C19.2692 30.1579 18.9492 29.9979 18.7792 29.6979C18.4192 29.0779 17.7592 29.0379 16.7792 29.5679C15.7592 30.1279 13.4992 30.2279 13.6992 29.6979C13.8992 29.2079 13.3992 28.2879 13.1092 28.5779C12.9792 28.6779 12.8092 29.2679 12.7192 29.8879C12.6192 30.4779 12.4192 31.2279 12.2292 31.5579C11.7992 32.3779 12.0992 32.6079 12.7492 31.9479C13.1092 31.5879 13.2692 31.5579 13.2692 31.8179C13.2692 32.3779 12.2892 33.4279 11.7292 33.4279C11.0392 33.4279 11.2392 33.9479 12.0592 34.3479C12.4492 34.5479 12.5792 34.7079 12.3892 34.7079C12.1592 34.7379 11.9592 34.9679 11.9592 35.2679C11.9592 35.9279 13.1692 35.5979 14.0292 34.7079C14.3592 34.3479 14.7792 34.0879 15.0092 34.0879C15.2392 34.1179 14.8792 34.5479 14.2592 35.0679C13.4092 35.8179 12.8192 36.0479 11.7292 36.0479C10.1592 36.0479 9.59921 36.6079 10.5192 37.2579C12.3192 38.5679 14.4592 38.1479 16.7192 36.0079C17.8392 34.9579 18.7892 34.3379 19.3792 34.2979C20.1992 34.2279 20.3292 34.3679 20.5592 35.5079C20.7192 36.3579 21.4492 37.5079 22.6592 38.8879C24.0992 40.5279 24.3692 40.9879 23.9692 41.1479C22.9892 41.5079 23.5792 42.6279 25.5392 44.1679C26.3892 44.8279 26.3892 44.8879 25.7992 44.8879C24.9792 44.8879 22.2892 41.9079 21.7292 40.3579C21.4992 39.7679 21.1692 39.3379 20.9792 39.4079C20.4892 39.5679 19.7992 42.5879 19.9592 43.8079C20.0892 44.7579 20.0292 44.8879 19.3692 44.8879C18.1592 44.8879 15.2392 43.9079 12.8092 42.6879C7.78921 40.1579 3.06922 33.9279 1.78922 28.1579C1.55922 27.0379 1.42921 24.7179 1.52921 22.0879C1.62921 18.4179 1.75922 17.5279 2.50922 15.7579C4.76922 10.3179 8.40921 6.14792 12.9692 3.91792C14.4792 3.16792 16.6792 2.34791 17.8592 2.07791C20.8292 1.43791 26.5392 1.66792 29.3892 2.55792ZM29.6492 7.08791C29.8792 11.9379 29.8792 11.9379 29.3892 11.9379C28.8692 11.9379 28.8292 11.3779 29.2592 9.70792C29.5592 8.42792 28.5692 8.52792 28.1092 9.80792C27.7492 10.8579 27.0892 11.1479 27.0892 10.2379C27.0892 9.87792 29.3192 5.90792 29.5492 5.87792C29.5892 5.86792 29.6192 6.42792 29.6492 7.08791ZM25.9492 9.14791C25.4292 9.66791 24.8692 10.1279 24.6692 10.1279C24.5092 10.1279 24.7692 9.66791 25.2892 9.14791C25.8092 8.58791 26.3692 8.16792 26.5692 8.16792C26.7292 8.16792 26.4692 8.58791 25.9492 9.14791ZM24.6692 21.4479C24.3092 21.7079 23.8492 21.9379 23.6892 21.9379C23.4892 21.9379 23.6192 21.7079 23.9492 21.4479C24.3092 21.1879 24.7692 20.9579 24.9292 20.9579C25.1292 20.9579 24.9892 21.1879 24.6692 21.4479ZM15.8792 22.8579C16.4692 23.6479 16.3692 24.0079 15.2592 24.6279C14.2792 25.1879 14.2792 25.1879 14.4692 24.5579C14.8292 23.3779 14.3692 22.5879 13.2892 22.5879C12.6692 22.5879 12.3692 22.4579 12.4992 22.2279C12.8292 21.7479 15.3492 22.2079 15.8792 22.8579ZM10.5292 24.2379C10.0392 25.1879 9.37921 25.5479 9.37921 24.8979C9.37921 24.3379 8.45921 24.5379 7.76921 25.2579L7.14922 25.9479L6.91921 25.2579C6.81921 24.8679 6.42922 24.5679 6.06922 24.5679C5.73922 24.5679 5.44921 24.4379 5.44921 24.2679C5.44921 24.0679 5.93921 24.0079 6.52921 24.1079C7.31921 24.2379 9.93921 23.7479 10.9592 23.2879C10.9892 23.2879 10.8192 23.6779 10.5292 24.2379ZM24.2092 29.8179C24.4392 32.6679 25.6892 35.4579 27.2892 36.4779C28.3692 37.1679 28.6992 37.6879 28.1092 37.6879C27.9492 37.6879 27.4892 37.4279 27.0592 37.0679C26.3392 36.5079 26.2692 36.5079 25.8792 36.9979C25.5492 37.4579 25.2892 37.2979 23.6792 35.5879C22.6592 34.5079 21.8392 33.5179 21.8392 33.3879C21.8392 33.2579 21.5392 33.0279 21.1792 32.9279C20.2292 32.6279 20.3892 32.1079 21.5092 31.8779C22.7892 31.6479 23.1492 30.9579 23.1492 28.6279C23.1492 27.0879 23.2192 26.8579 23.6092 27.1479C23.8792 27.3879 24.1092 28.4679 24.2092 29.8179ZM39.5192 32.4079C39.5492 33.7179 39.3892 35.7579 39.1592 36.8979C38.7992 38.8979 38.6992 39.0579 36.9592 40.4079C35.9392 41.1979 34.6292 42.1179 34.0692 42.4079L32.9892 42.9679V42.0779C32.9892 41.5879 33.1492 40.6679 33.3492 39.9779L33.7092 38.7679L31.7092 36.7979C29.4792 34.6379 29.0492 33.6479 30.8892 34.8979C31.5492 35.3579 32.2692 35.7179 32.4992 35.7179C32.7292 35.7179 33.4192 36.0779 34.0692 36.5079C35.2192 37.2979 35.2492 37.2979 35.4492 36.6679C35.5792 36.3079 35.8392 36.0779 36.0392 36.1479C36.4692 36.2779 38.1092 32.4779 38.3992 30.5679C38.9292 27.4879 39.4592 28.3679 39.5192 32.4079Z" fill="white"/>
<path d="M11.0192 5.89791C10.7892 6.25791 10.5292 7.83791 10.3992 9.30791C10.1992 11.1479 9.90921 12.3879 9.44921 13.1479C8.78921 14.1979 7.87921 18.5579 8.19921 18.9179C8.65921 19.3479 9.37922 18.1279 9.37922 16.9779C9.37922 15.4979 9.96921 14.0579 10.5892 14.0579C10.8192 14.0579 11.0192 13.9279 11.0192 13.7579C11.0192 13.5979 11.3192 13.3279 11.6792 13.2379C12.4692 12.9779 12.5292 11.9279 11.8092 11.4979C11.4492 11.2979 11.3492 10.8079 11.4192 9.59791L11.5192 7.98791L11.9492 9.29791C12.2092 10.0179 12.6092 10.8679 12.8392 11.2379C13.2692 11.8279 13.3292 11.8279 14.4492 11.1079C15.1092 10.7179 15.6292 10.2179 15.6292 9.98791C15.6292 9.42791 12.3792 5.39791 11.8292 5.26791C11.5792 5.21791 11.2192 5.50791 11.0192 5.89791Z" fill="white"/>
<path d="M11.3492 15.7079C11.0492 16.2679 11.1192 16.5579 11.7392 17.3479C12.1692 17.8679 12.5892 18.2979 12.6892 18.2979C13.1792 18.3679 13.3092 17.1779 12.9492 16.1379C12.5592 14.9179 11.8692 14.7279 11.3492 15.7079Z" fill="white"/>
<path d="M9.93924 17.8079C9.83924 18.0679 9.96924 18.4679 10.2392 18.6579C10.6292 18.9879 10.6992 18.9179 10.6992 18.1979C10.6892 17.2879 10.2292 17.0579 9.93924 17.8079Z" fill="white"/>
<path d="M22.3391 18.3679C22.0791 19.1879 22.3091 19.4879 22.9991 19.2179C23.6191 18.9579 23.6591 18.1379 23.0291 17.9079C22.7291 17.7779 22.4691 17.9779 22.3391 18.3679Z" fill="white"/>
<path d="M20.8592 18.3379C20.4292 18.6379 20.4292 18.6979 20.8592 18.9979C21.3492 19.3279 21.6792 18.9979 21.4492 18.3379C21.3892 18.1379 21.1892 18.1379 20.8592 18.3379Z" fill="white"/>
<path d="M9.76923 34.6379C9.83923 35.2979 10.0692 35.5879 10.6192 35.6579C11.6392 35.8179 11.5692 34.9679 10.4892 34.2479C9.67923 33.7179 9.67923 33.7179 9.76923 34.6379Z" fill="white"/>
</svg>
