<svg xmlns="http://www.w3.org/2000/svg" xmlns:xlink="http://www.w3.org/1999/xlink" style="margin:auto;background:#10103a;display:block;z-index:1;position:relative" width="1920" height="979" preserveAspectRatio="xMidYMid" viewBox="0 0 1920 979">
<g transform="translate(960,489.5) scale(1,1) translate(-960,-489.5)"><path id="path0" d="M 1281.261068591595 841.9519870309757
c 0 20.194297012223643 -4.941157779586636 5.800489567340834 -10.74164734692747 5.800489567340834
S 1259.77777389774 862.1462840431993 1259.77777389774 841.9519870309757
s 4.941157779586636 -5.800489567340834 10.74164734692747 -5.800489567340834
S 1281.261068591595 821.7576900187521 1281.261068591595 841.9519870309757
z" fill="none" stroke="none"></path>
<circle cx="0" cy="0" r="6.947819586555939" fill="#51cacc" opacity="0.9">
  <animateMotion begin="-4.3477383473889875s" dur="4.45s" repeatCount="indefinite">
    <mpath xlink:href="#path0"></mpath>
  </animateMotion>
</circle><path id="path1" d="M 752.3727475673517 297.63831301895885
c 0 24.56132115989081 -6.009684964654134 7.05484756720268 -13.064532531856814 7.05484756720268
S 726.2436825036381 322.1996341788497 726.2436825036381 297.63831301895885
s 6.009684964654134 -7.05484756720268 13.064532531856814 -7.05484756720268
S 752.3727475673517 273.076991859068 752.3727475673517 297.63831301895885
z" fill="none" stroke="none"></path>
<circle cx="0" cy="0" r="7.469551934063094" fill="#9df871" opacity="0.9">
  <animateMotion begin="-0.6040559454524247s" dur="4.45s" repeatCount="indefinite">
    <mpath xlink:href="#path1"></mpath>
  </animateMotion>
</circle><path id="path2" d="M 1603.7154264489395 114.55373372904536
c 0 32.075735825719455 -7.848318340335609 9.21324326908963 -17.06156160942524 9.21324326908963
S 1569.5923032300889 146.62946955476482 1569.5923032300889 114.55373372904536
s 7.848318340335609 -9.21324326908963 17.06156160942524 -9.21324326908963
S 1603.7154264489395 82.4779979033259 1603.7154264489395 114.55373372904536
z" fill="none" stroke="none"></path>
<circle cx="0" cy="0" r="5.426860957451563" fill="#9df871" opacity="0.9">
  <animateMotion begin="-3.2312596760468844s" dur="4.45s" repeatCount="indefinite">
    <mpath xlink:href="#path2"></mpath>
  </animateMotion>
</circle><path id="path3" d="M 827.2787540593472 290.1251740959506
c 0 35.701422248873826 -8.735454380043596 10.254663837442482 -18.990118217486078 10.254663837442482
S 789.2985176243751 325.82659634482445 789.2985176243751 290.1251740959506
s 8.735454380043596 -10.254663837442482 18.990118217486078 -10.254663837442482
S 827.2787540593472 254.4237518470768 827.2787540593472 290.1251740959506
z" fill="none" stroke="none"></path>
<circle cx="0" cy="0" r="6.461594158604383" fill="#ff708e" opacity="0.9">
  <animateMotion begin="-3.511418262354591s" dur="4.45s" repeatCount="indefinite">
    <mpath xlink:href="#path3"></mpath>
  </animateMotion>
</circle><path id="path4" d="M 395.34373914566686 484.7773043005084
c 0 29.820302851688904 -7.296457080732391 8.565406138251069 -15.861863218983459 8.565406138251069
S 363.62001270769997 514.5976071521973 363.62001270769997 484.7773043005084
s 7.296457080732391 -8.565406138251069 15.861863218983459 -8.565406138251069
S 395.34373914566686 454.9570014488195 395.34373914566686 484.7773043005084
z" fill="none" stroke="none"></path>
<circle cx="0" cy="0" r="7.407404338038604" fill="#9df871" opacity="0.9">
  <animateMotion begin="-2.6084546419903654s" dur="4.45s" repeatCount="indefinite">
    <mpath xlink:href="#path4"></mpath>
  </animateMotion>
</circle><path id="path5" d="M 191.86988493954527 48.12654857034706
c 0 26.383437906458767 -6.4555220409420375 7.578221526323262 -14.0337435672653 7.578221526323262
S 163.80239780501466 74.50998647680584 163.80239780501466 48.12654857034706
s 6.4555220409420375 -7.578221526323262 14.0337435672653 -7.578221526323262
S 191.86988493954527 21.743110663888295 191.86988493954527 48.12654857034706
z" fill="none" stroke="none"></path>
<circle cx="0" cy="0" r="4.435764210484396" fill="#de9dd6" opacity="0.9">
  <animateMotion begin="-2.412935526990622s" dur="4.45s" repeatCount="indefinite">
    <mpath xlink:href="#path5"></mpath>
  </animateMotion>
</circle><path id="path6" d="M 71.80546263833682 358.08910493369564
c 0 28.761476227628695 -7.037382481228297 8.261275086659307 -15.298657567887604 8.261275086659307
S 41.208147502561616 386.8505811613243 41.208147502561616 358.08910493369564
s 7.037382481228297 -8.261275086659307 15.298657567887604 -8.261275086659307
S 71.80546263833682 329.32762870606695 71.80546263833682 358.08910493369564
z" fill="none" stroke="none"></path>
<circle cx="0" cy="0" r="7.934652883627293" fill="#9df871" opacity="0.9">
  <animateMotion begin="-4.067002922393089s" dur="4.45s" repeatCount="indefinite">
    <mpath xlink:href="#path6"></mpath>
  </animateMotion>
</circle><path id="path7" d="M 542.5396890911027 225.50920544459754
c 0 20.641603433286058 -5.050605095378503 5.928971198922591 -10.979576294301093 5.928971198922591
S 520.5805365025005 246.1508088778836 520.5805365025005 225.50920544459754
s 5.050605095378503 -5.928971198922591 10.979576294301093 -5.928971198922591
S 542.5396890911027 204.86760201131148 542.5396890911027 225.50920544459754
z" fill="none" stroke="none"></path>
<circle cx="0" cy="0" r="4.900599926725267" fill="#51cacc" opacity="0.9">
  <animateMotion begin="-0.27171490271436455s" dur="4.45s" repeatCount="indefinite">
    <mpath xlink:href="#path7"></mpath>
  </animateMotion>
</circle><path id="path8" d="M 1844.1997406969972 367.3448344733065
c 0 22.754705756774364 -5.567640770274577 6.535926121626678 -12.103566891901256 6.535926121626678
S 1819.9926069131948 390.09954023008083 1819.9926069131948 367.3448344733065
s 5.567640770274577 -6.535926121626678 12.103566891901256 -6.535926121626678
S 1844.1997406969972 344.59012871653215 1844.1997406969972 367.3448344733065
z" fill="none" stroke="none"></path>
<circle cx="0" cy="0" r="4.355496159286546" fill="#e0ff77" opacity="0.9">
  <animateMotion begin="-1.7195445370167761s" dur="4.45s" repeatCount="indefinite">
    <mpath xlink:href="#path8"></mpath>
  </animateMotion>
</circle><path id="path9" d="M 1417.565799938044 462.3285927328616
c 0 20.866120293534767 -5.105540071822336 5.9934600843131784 -11.099000156135514 5.9934600843131784
S 1395.3677996257727 483.19471302639636 1395.3677996257727 462.3285927328616
s 5.105540071822336 -5.9934600843131784 11.099000156135514 -5.9934600843131784
S 1417.565799938044 441.4624724393268 1417.565799938044 462.3285927328616
z" fill="none" stroke="none"></path>
<circle cx="0" cy="0" r="6.775938565001487" fill="#9df871" opacity="0.9">
  <animateMotion begin="-1.947369249558991s" dur="4.45s" repeatCount="indefinite">
    <mpath xlink:href="#path9"></mpath>
  </animateMotion>
</circle><path id="path10" d="M 1682.5600330172667 776.4942003675594
c 0 29.87901881142336 -7.310823751731247 8.582271360727987 -15.893095112459235 8.582271360727987
S 1650.7738427923484 806.3732191789828 1650.7738427923484 776.4942003675594
s 7.310823751731247 -8.582271360727987 15.893095112459235 -8.582271360727987
S 1682.5600330172667 746.615181556136 1682.5600330172667 776.4942003675594
z" fill="none" stroke="none"></path>
<circle cx="0" cy="0" r="5.728061305228536" fill="#9df871" opacity="0.9">
  <animateMotion begin="-2.990727385138598s" dur="4.45s" repeatCount="indefinite">
    <mpath xlink:href="#path10"></mpath>
  </animateMotion>
</circle><path id="path11" d="M 1332.8851249928152 574.2468507537261
c 0 32.366395608587524 -7.919437223377797 9.29673065353046 -17.21616787690826 9.29673065353046
S 1298.4527892389988 606.6132463623136 1298.4527892389988 574.2468507537261
s 7.919437223377797 -9.29673065353046 17.21616787690826 -9.29673065353046
S 1332.8851249928152 541.8804551451386 1332.8851249928152 574.2468507537261
z" fill="none" stroke="none"></path>
<circle cx="0" cy="0" r="4.039821545618926" fill="#9df871" opacity="0.9">
  <animateMotion begin="-3.207383274678849s" dur="4.45s" repeatCount="indefinite">
    <mpath xlink:href="#path11"></mpath>
  </animateMotion>
</circle><path id="path12" d="M 1702.416104885338 687.9361306676872
c 0 31.461604802260087 -7.698052238850871 9.036843932564068 -16.73489617141494 9.036843932564068
S 1668.9463125425082 719.3977354699473 1668.9463125425082 687.9361306676872
s 7.698052238850871 -9.036843932564068 16.73489617141494 -9.036843932564068
S 1702.416104885338 656.474525865427 1702.416104885338 687.9361306676872
z" fill="none" stroke="none"></path>
<circle cx="0" cy="0" r="5.257238721977516" fill="#ff708e" opacity="0.9">
  <animateMotion begin="-0.505315453327948s" dur="4.45s" repeatCount="indefinite">
    <mpath xlink:href="#path12"></mpath>
  </animateMotion>
</circle><path id="path13" d="M 381.41323532237726 683.0199686193658
c 0 32.29719520566463 -7.902505209896663 9.276853942052606 -17.17935915194927 9.276853942052606
S 347.05451701847875 715.3171638250304 347.05451701847875 683.0199686193658
s 7.902505209896663 -9.276853942052606 17.17935915194927 -9.276853942052606
S 381.41323532237726 650.7227734137012 381.41323532237726 683.0199686193658
z" fill="none" stroke="none"></path>
<circle cx="0" cy="0" r="7.801996018118259" fill="#9df871" opacity="0.9">
  <animateMotion begin="-0.14199159557033977s" dur="4.45s" repeatCount="indefinite">
    <mpath xlink:href="#path13"></mpath>
  </animateMotion>
</circle><path id="path14" d="M 1917.9875074239633 113.5702511262857
c 0 28.300716064949494 -6.924643292487641 8.128929082485493 -15.053572374973134 8.128929082485493
S 1887.880362674017 141.8709671912352 1887.880362674017 113.5702511262857
s 6.924643292487641 -8.128929082485493 15.053572374973134 -8.128929082485493
S 1917.9875074239633 85.2695350613362 1917.9875074239633 113.5702511262857
z" fill="none" stroke="none"></path>
<circle cx="0" cy="0" r="4.941633109655489" fill="#ff708e" opacity="0.9">
  <animateMotion begin="-3.278409348594061s" dur="4.45s" repeatCount="indefinite">
    <mpath xlink:href="#path14"></mpath>
  </animateMotion>
</circle><path id="path15" d="M 1766.0031222501016 827.9396081788951
c 0 22.394291664835073 -5.479454343523474 6.432402925005819 -11.911857268529292 6.432402925005819
S 1742.179407713043 850.3338998437303 1742.179407713043 827.9396081788951
s 5.479454343523474 -6.432402925005819 11.911857268529292 -6.432402925005819
S 1766.0031222501016 805.54531651406 1766.0031222501016 827.9396081788951
z" fill="none" stroke="none"></path>
<circle cx="0" cy="0" r="7.011231779683835" fill="#ff708e" opacity="0.9">
  <animateMotion begin="-4.401233278081197s" dur="4.45s" repeatCount="indefinite">
    <mpath xlink:href="#path15"></mpath>
  </animateMotion>
</circle><path id="path16" d="M 1408.6299753373407 357.72995610735455
c 0 30.06259563335417 -7.355741484756871 8.63500087341024 -15.990742358167111 8.63500087341024
S 1376.6484906210064 387.79255174070875 1376.6484906210064 357.72995610735455
s 7.355741484756871 -8.63500087341024 15.990742358167111 -8.63500087341024
S 1408.6299753373407 327.66736047400036 1408.6299753373407 357.72995610735455
z" fill="none" stroke="none"></path>
<circle cx="0" cy="0" r="7.5960226155683115" fill="#ff708e" opacity="0.9">
  <animateMotion begin="-2.387428840472669s" dur="4.45s" repeatCount="indefinite">
    <mpath xlink:href="#path16"></mpath>
  </animateMotion>
</circle><path id="path17" d="M 65.97780088762728 937.4747853136972
c 0 25.21546242675846 -6.169740806547282 7.242739207685941 -13.412480014233223 7.242739207685941
S 39.15284085916083 962.6902477404557 39.15284085916083 937.4747853136972
s 6.169740806547282 -7.242739207685941 13.412480014233223 -7.242739207685941
S 65.97780088762728 912.2593228869388 65.97780088762728 937.4747853136972
z" fill="none" stroke="none"></path>
<circle cx="0" cy="0" r="5.694681183369588" fill="#9df871" opacity="0.9">
  <animateMotion begin="-3.759659255069241s" dur="4.45s" repeatCount="indefinite">
    <mpath xlink:href="#path17"></mpath>
  </animateMotion>
</circle><path id="path18" d="M 1435.1865573805123 330.3142536181385
c 0 34.29776705331518 -8.392006832194138 9.85148628127138 -18.24349311346552 9.85148628127138
S 1398.6995711535812 364.61202067145365 1398.6995711535812 330.3142536181385
s 8.392006832194138 -9.85148628127138 18.24349311346552 -9.85148628127138
S 1435.1865573805123 296.0164865648233 1435.1865573805123 330.3142536181385
z" fill="none" stroke="none"></path>
<circle cx="0" cy="0" r="4.658495077089086" fill="#9df871" opacity="0.9">
  <animateMotion begin="-3.6270824528390038s" dur="4.45s" repeatCount="indefinite">
    <mpath xlink:href="#path18"></mpath>
  </animateMotion>
</circle><path id="path19" d="M 656.9503134346896 379.1921846243757
c 0 22.111670583924425 -5.410302376917678 6.3512245294251 -11.761526906342779 6.3512245294251
S 633.4272596220042 401.30385520830015 633.4272596220042 379.1921846243757
s 5.410302376917678 -6.3512245294251 11.761526906342779 -6.3512245294251
S 656.9503134346896 357.0805140404513 656.9503134346896 379.1921846243757
z" fill="none" stroke="none"></path>
<circle cx="0" cy="0" r="4.9142578423172205" fill="#de9dd6" opacity="0.9">
  <animateMotion begin="-1.0170855326442871s" dur="4.45s" repeatCount="indefinite">
    <mpath xlink:href="#path19"></mpath>
  </animateMotion>
</circle><path id="path20" d="M 405.19808164511045 121.67959461213067
c 0 25.712664528486563 -6.291396639948839 7.3855525773312465 -13.676949217280086 7.3855525773312465
S 377.8441832105503 147.39225914061723 377.8441832105503 121.67959461213067
s 6.291396639948839 -7.3855525773312465 13.676949217280086 -7.3855525773312465
S 405.19808164511045 95.96693008364412 405.19808164511045 121.67959461213067
z" fill="none" stroke="none"></path>
<circle cx="0" cy="0" r="5.4824331902401005" fill="#de9dd6" opacity="0.9">
  <animateMotion begin="-1.8088184365072713s" dur="4.45s" repeatCount="indefinite">
    <mpath xlink:href="#path20"></mpath>
  </animateMotion>
</circle><path id="path21" d="M 317.36960031141274 753.9763548394444
c 0 36.89640831964261 -9.027844588848723 10.597904517344153 -19.625749106192877 10.597904517344153
S 278.118102099027 790.8727631590871 278.118102099027 753.9763548394444
s 9.027844588848723 -10.597904517344153 19.625749106192877 -10.597904517344153
S 317.36960031141274 717.0799465198018 317.36960031141274 753.9763548394444
z" fill="none" stroke="none"></path>
<circle cx="0" cy="0" r="6.369793624569229" fill="#e0ff77" opacity="0.9">
  <animateMotion begin="-0.4028554652680122s" dur="4.45s" repeatCount="indefinite">
    <mpath xlink:href="#path21"></mpath>
  </animateMotion>
</circle><path id="path22" d="M 1773.8628025703058 806.8518077067757
c 0 30.0615310910821 -7.355481011647747 8.634695100629965 -15.990176112277712 8.634695100629965
S 1741.8824503457502 836.9133387978578 1741.8824503457502 806.8518077067757
s 7.355481011647747 -8.634695100629965 15.990176112277712 -8.634695100629965
S 1773.8628025703058 776.7902766156936 1773.8628025703058 806.8518077067757
z" fill="none" stroke="none"></path>
<circle cx="0" cy="0" r="6.775732632833181" fill="#51cacc" opacity="0.9">
  <animateMotion begin="-2.0341647966338847s" dur="4.45s" repeatCount="indefinite">
    <mpath xlink:href="#path22"></mpath>
  </animateMotion>
</circle><path id="path23" d="M 598.7824236440997 403.1871405134074
c 0 21.422078092579163 -5.241572299248093 6.153150090421675 -11.394722389669766 6.153150090421675
S 575.9929788647603 424.6092186059866 575.9929788647603 403.1871405134074
s 5.241572299248093 -6.153150090421675 11.394722389669766 -6.153150090421675
S 598.7824236440997 381.76506242082826 598.7824236440997 403.1871405134074
z" fill="none" stroke="none"></path>
<circle cx="0" cy="0" r="7.494390618697332" fill="#9df871" opacity="0.9">
  <animateMotion begin="-2.780012774703348s" dur="4.45s" repeatCount="indefinite">
    <mpath xlink:href="#path23"></mpath>
  </animateMotion>
</circle><path id="path24" d="M 1173.2660621363316 764.237491199859
c 0 31.63556189832531 -7.740616209164703 9.086810332497695 -16.827426541662398 9.086810332497695
S 1139.6112090530069 795.8730530981844 1139.6112090530069 764.237491199859
s 7.740616209164703 -9.086810332497695 16.827426541662398 -9.086810332497695
S 1173.2660621363316 732.6019293015337 1173.2660621363316 764.237491199859
z" fill="none" stroke="none"></path>
<circle cx="0" cy="0" r="5.1726279936982955" fill="#9df871" opacity="0.9">
  <animateMotion begin="-2.7350221644251818s" dur="4.45s" repeatCount="indefinite">
    <mpath xlink:href="#path24"></mpath>
  </animateMotion>
</circle><path id="path25" d="M 1896.9844868574942 674.4868058792049
c 0 22.48629946656837 -5.50196689075609 6.458830697844106 -11.960797588600196 6.458830697844106
S 1873.062891680294 696.9731053457733 1873.062891680294 674.4868058792049
s 5.50196689075609 -6.458830697844106 11.960797588600196 -6.458830697844106
S 1896.9844868574942 652.0005064126365 1896.9844868574942 674.4868058792049
z" fill="none" stroke="none"></path>
<circle cx="0" cy="0" r="6.835194747384155" fill="#e0ff77" opacity="0.9">
  <animateMotion begin="-2.2008812425282147s" dur="4.45s" repeatCount="indefinite">
    <mpath xlink:href="#path25"></mpath>
  </animateMotion>
</circle><path id="path26" d="M 1654.5540345562822 315.20613357876465
c 0 23.14530048004684 -5.6632118195859285 6.648118222992178 -12.311330042578106 6.648118222992178
S 1629.9313744711258 338.3514340588115 1629.9313744711258 315.20613357876465
s 5.6632118195859285 -6.648118222992178 12.311330042578106 -6.648118222992178
S 1654.5540345562822 292.0608330987178 1654.5540345562822 315.20613357876465
z" fill="none" stroke="none"></path>
<circle cx="0" cy="0" r="5.65660723905779" fill="#9df871" opacity="0.9">
  <animateMotion begin="-0.7349668423646561s" dur="4.45s" repeatCount="indefinite">
    <mpath xlink:href="#path26"></mpath>
  </animateMotion>
</circle><path id="path27" d="M 1573.9024913523833 122.32656310644437
c 0 32.85806298443217 -8.039738815339787 9.437954261485837 -17.477693076825624 9.437954261485837
S 1538.9471051987323 155.18462609087655 1538.9471051987323 122.32656310644437
s 8.039738815339787 -9.437954261485837 17.477693076825624 -9.437954261485837
S 1573.9024913523833 89.46850012201219 1573.9024913523833 122.32656310644437
z" fill="none" stroke="none"></path>
<circle cx="0" cy="0" r="4.075335513317281" fill="#de9dd6" opacity="0.9">
  <animateMotion begin="-3.310719939625098s" dur="4.45s" repeatCount="indefinite">
    <mpath xlink:href="#path27"></mpath>
  </animateMotion>
</circle><path id="path28" d="M 1875.829952669065 270.43211906006223
c 0 21.333881913061166 -5.219992382983051 6.127817145240973 -11.347809528224024 6.127817145240973
S 1853.1343336126172 291.7660009731234 1853.1343336126172 270.43211906006223
s 5.219992382983051 -6.127817145240973 11.347809528224024 -6.127817145240973
S 1875.829952669065 249.09823714700107 1875.829952669065 270.43211906006223
z" fill="none" stroke="none"></path>
<circle cx="0" cy="0" r="4.488095391425772" fill="#de9dd6" opacity="0.9">
  <animateMotion begin="-0.31792259963072544s" dur="4.45s" repeatCount="indefinite">
    <mpath xlink:href="#path28"></mpath>
  </animateMotion>
</circle><path id="path29" d="M 1875.9372050446352 591.3042657408819
c 0 32.07087010440125 -7.847127791502434 9.211845668285466 -17.0589734597879 9.211845668285466
S 1841.8192581250594 623.3751358452831 1841.8192581250594 591.3042657408819
s 7.847127791502434 -9.211845668285466 17.0589734597879 -9.211845668285466
S 1875.9372050446352 559.2333956364806 1875.9372050446352 591.3042657408819
z" fill="none" stroke="none"></path>
<circle cx="0" cy="0" r="6.33365396258841" fill="#de9dd6" opacity="0.9">
  <animateMotion begin="-0.932569514236492s" dur="4.45s" repeatCount="indefinite">
    <mpath xlink:href="#path29"></mpath>
  </animateMotion>
</circle></g>
</svg>